<?xml version="1.0" standalone="no"?>
<!DOCTYPE svg PUBLIC "-//W3C//DTD SVG 1.1//EN" "http://www.w3.org/Graphics/SVG/1.1/DTD/svg11.dtd" >
<svg>
<metadata>
Created by FontForge 20090914 at Tue Dec  4 09:03:54 2018
 By www-data
Copyright (c) 2014 by Andriy Konstantynov. All rights reserved.
</metadata>
<defs>
<font id="AngleciaProDisplay-Regular" horiz-adv-x="610" >
  <font-face 
    font-family="Anglecia Pro Dsp"
    font-weight="400"
    font-stretch="normal"
    units-per-em="1000"
    panose-1="2 5 0 3 8 0 0 0 0 0"
    ascent="750"
    descent="-250"
    x-height="500"
    cap-height="700"
    bbox="-20 -205 1181 902.001"
    underline-thickness="50"
    underline-position="-50"
    unicode-range="U+0020-U+04D9"
  />
<missing-glyph horiz-adv-x="218" 
 />
    <glyph glyph-name="ff" unicode="ff" horiz-adv-x="647" 
d="M79 507l-0.000976562 31.001c0 51.333 22.5 92.166 67.5 122.499s103.5 45.5 175.5 45.5c34.667 0 67 -7 97 -21c32.667 26 75.334 39 128.001 39c37.333 0 69.833 -7.33301 97.5 -22s41.5 -36.334 41.5 -65.001c0 -16 -4.66699 -29 -14 -39s-21.666 -15 -36.999 -15
c-16.667 0 -30.667 5.83301 -42 17.5s-17 27.167 -17 46.5v54c-10.667 5.33301 -20.334 8 -29.001 8c-22.667 0 -40.5 -12.167 -53.5 -36.5s-19.5 -57.166 -19.5 -98.499v-74h162v-20h-162v-451l90 -19v-10h-250v10l56 19v451h-187v-451l85 -19v-10h-249v10l60 19v451h-60v8
zM369.999 507.001v67c0 37.333 10 68.333 30 93c-22.667 15.333 -48.667 23 -78 23c-44 0 -78.167 -14 -102.5 -42s-36.5 -64.667 -36.5 -110v-38h166z" />
    <glyph glyph-name="fi" unicode="fi" horiz-adv-x="554" 
d="M314 0l-0.000976562 10.0029l56 19v440l-48 11h-139v-451l87 -19v-10h-251v10l60 19v451h-60v8l60 19v62c0 48 20.667 85.833 62 113.5s100 41.5 176 41.5c46.667 0 85.334 -7.83301 116.001 -23.5s46 -38.834 46 -69.501c0 -18.667 -5.5 -33.334 -16.5 -44.001
s-25.167 -16 -42.5 -16c-18.667 0 -34.334 6.16699 -47.001 18.5s-19 29.166 -19 50.499v57c-12.667 8 -28.667 12 -48 12c-39.333 0 -69.666 -12.5 -90.999 -37.5s-32 -59.167 -32 -102.5v-69h127l151 7l13 -14v-464l60 -19v-10h-220z" />
    <glyph glyph-name="fl" unicode="fl" horiz-adv-x="548" 
d="M314 0v10.001l63 19v650c-18.667 18.667 -44.667 28 -78 28c-37.333 0 -66 -11.833 -86 -35.5s-30 -56.167 -30 -97.5v-74h142v-20h-142v-451l90 -19v-10h-254v10l60 19v451h-60v8l60 19v67c0 47.333 18.833 84.166 56.5 110.499s93.834 39.5 168.501 39.5
c31.333 0 58.666 -2.33301 81.999 -7l82 10l13 -14v-684l60 -19v-10h-227z" />
    <glyph glyph-name="ffi" unicode="ffi" horiz-adv-x="845" 
d="M605 0l-0.00292969 10.0039l57 19v440l-49 11h-139v-451l87 -19v-10h-249v10l58 19v451h-187v-451l85 -19v-10h-249v10l60 19v451h-60v8l60 19v31c0 51.333 22.5 92.166 67.5 122.499s101.833 45.5 170.5 45.5c42.667 0 79.667 -9.66699 111 -29
c40.667 31.333 100.667 47 180 47c46.667 0 85.334 -7.83301 116.001 -23.5s46 -38.834 46 -69.501c0 -18.667 -5.5 -33.334 -16.5 -44.001s-25.167 -16 -42.5 -16c-19.333 0 -35.166 6.16699 -47.499 18.5s-18.5 29.166 -18.5 50.499v57c-12.667 8 -28.667 12 -48 12
c-39.333 0 -69.666 -12.5 -90.999 -37.5s-32 -59.167 -32 -102.5v-69h128l150 7l13 -14v-464l60 -19v-10h-220zM369.997 507.004l0.000976562 62c0 36 13 66.333 39 91c-24.667 20 -54.334 30 -89.001 30c-42.667 0 -76.167 -14 -100.5 -42s-36.5 -64.667 -36.5 -110v-38
h166z" />
    <glyph glyph-name="ffl" unicode="ffl" horiz-adv-x="852" 
d="M605 0l-0.000976562 10.001l64 19v650c-20 18.667 -46.333 28 -79 28c-37.333 0 -66 -11.833 -86 -35.5s-30 -56.167 -30 -97.5v-74h142v-20h-142v-451l90 -19v-10h-254v10l60 19v451h-187v-451l85 -19v-10h-249v10l60 19v451h-60v8l60 19v31
c0 51.333 22.5 92.166 67.5 122.499s102.167 45.5 171.5 45.5c42.667 0 78.334 -8.66699 107.001 -26c38 29.333 94.333 44 169 44c32 0 60 -2.33301 84 -7l81 10l13 -14v-684l60 -19v-10h-227zM369.999 507.001v67c0 36.667 11.667 66.667 35 90
c-24.667 17.333 -53 26 -85 26c-42.667 0 -76.167 -14 -100.5 -42s-36.5 -64.667 -36.5 -110v-38h166z" />
    <glyph glyph-name="f_f_j" unicode="ffj" horiz-adv-x="845" 
d="M662 16l-0.00390625 453.005l-49 11h-139v-451l90 -19v-10h-252v10l58 19v451h-187v-451l85 -19v-10h-249v10l60 19v451h-60v8l60 19v31c0 51.333 22.5 92.166 67.5 122.499s101.833 45.5 170.5 45.5c42.667 0 79.667 -9.66699 111 -29c40.667 31.333 100.667 47 180 47
c46.667 0 85.334 -7.83301 116.001 -23.5s46 -38.834 46 -69.501c0 -18.667 -5.5 -33.334 -16.5 -44.001s-25.167 -16 -42.5 -16c-19.333 0 -35.166 6.16699 -47.499 18.5s-18.5 29.166 -18.5 50.499v57c-12.667 8 -28.667 12 -48 12c-39.333 0 -69.666 -12.5 -90.999 -37.5
s-32 -59.167 -32 -102.5v-69h128l150 7l13 -14v-477c0 -48.667 -12.667 -90.334 -38 -125.001s-63.666 -66.667 -114.999 -96l-12 11c41.333 58 62 128 62 210zM369.996 507.005l0.000976562 62c0 36 13 66.333 39 91c-24.667 20 -54.334 30 -89.001 30
c-42.667 0 -76.167 -14 -100.5 -42s-36.5 -64.667 -36.5 -110v-38h166z" />
    <glyph glyph-name="f_j" unicode="fj" horiz-adv-x="554" 
d="M370 16l-0.000976562 453.004l-48 11h-139v-451l90 -19v-10h-254v10l60 19v451h-60v8l60 19v62c0 48 20.667 85.833 62 113.5s100 41.5 176 41.5c46.667 0 85.334 -7.83301 116.001 -23.5s46 -38.834 46 -69.501c0 -18.667 -5.5 -33.334 -16.5 -44.001
s-25.167 -16 -42.5 -16c-18.667 0 -34.334 6.16699 -47.001 18.5s-19 29.166 -19 50.499v57c-12.667 8 -28.667 12 -48 12c-39.333 0 -69.666 -12.5 -90.999 -37.5s-32 -59.167 -32 -102.5v-69h127l151 7l13 -14v-477c0 -48.667 -12.833 -90.334 -38.5 -125.001
s-64.167 -66.667 -115.5 -96l-11 11c40.667 57.333 61 127.333 61 210z" />
    <glyph glyph-name=".notdef" horiz-adv-x="218" 
 />
    <glyph glyph-name="space" unicode=" " horiz-adv-x="218" 
 />
    <glyph glyph-name="exclam" unicode="!" horiz-adv-x="212" 
d="M118 196l-24 -0.000976562c-8 111.333 -16.333 201.833 -25 271.5s-15.167 114.667 -19.5 135s-6.5 32.833 -6.5 37.5c0 18 6 33.167 18 45.5s27 18.5 45 18.5s33 -6.16699 45 -18.5s18 -27.5 18 -45.5c0 -4.66699 -2.16699 -17.167 -6.5 -37.5
s-10.833 -65.166 -19.5 -134.499s-17 -160 -25 -272zM45 57.999c0 17.333 5.83301 32 17.5 44s26.167 18 43.5 18s31.833 -6 43.5 -18s17.5 -26.667 17.5 -44s-5.83301 -32 -17.5 -44s-26.167 -18 -43.5 -18s-31.833 6 -43.5 18s-17.5 26.667 -17.5 44z" />
    <glyph glyph-name="quotedbl" unicode="&#x22;" horiz-adv-x="289" 
d="M96 499h-21.998c-2 32 -5.5 60 -10.5 84s-9.16699 42.167 -12.5 54.5s-5 21.166 -5 26.499c0 11.333 3.66699 20.833 11 28.5s16.666 11.5 27.999 11.5s20.666 -3.83301 27.999 -11.5s11 -17.167 11 -28.5c0 -5.33301 -1.66699 -14.166 -5 -26.499
s-7.5 -30.5 -12.5 -54.5s-8.5 -52 -10.5 -84zM220.002 499h-20.999c-2 32 -5.5 60 -10.5 84s-9.33301 42.167 -13 54.5s-5.5 21.166 -5.5 26.499c0 11.333 3.66699 20.833 11 28.5s16.666 11.5 27.999 11.5s20.833 -3.83301 28.5 -11.5s11.5 -17.167 11.5 -28.5
c0 -5.33301 -1.83301 -14.166 -5.5 -26.499s-8 -30.5 -13 -54.5s-8.5 -52 -10.5 -84z" />
    <glyph glyph-name="numbersign" unicode="#" horiz-adv-x="566" 
d="M70 450v30h124l65 220h33l-65 -220h190l65 220h33l-65 -220h82v-30h-91l-60 -200h116v-31h-125l-65 -219h-33l65 219h-190l-65 -219h-33l65 219h-82v31h91l60 200h-115zM218 450l-60 -200h190l60 200h-190z" />
    <glyph glyph-name="dollar" unicode="$" horiz-adv-x="589" 
d="M298 -50l-23.0039 0.000976562v44c-65.333 2 -124 17.667 -176 47h-49v122h18c6.66699 -30.667 18 -56.834 34 -78.501s34.5 -37.667 55.5 -48s40.833 -17.5 59.5 -21.5s38 -6 58 -6l4 298l-48 14.5c-10 3 -24.667 8.16699 -44 15.5s-33.666 14 -42.999 20
s-20.666 14.167 -33.999 24.5s-23.166 21.166 -29.499 32.499s-11.833 25 -16.5 41s-7 33.667 -7 53c0 58 19 105.333 57 142s94.667 55.334 170 56.001l1 44h24l-1 -45c55.333 -2.66699 107.333 -18 156 -46h49v-123h-18c-6.66699 30 -17.167 55.667 -31.5 77
s-31 37.333 -50 48s-37 18.167 -54 22.5s-34.167 6.83301 -51.5 7.5l-4 -278h2c30 -9.33301 53.667 -17.166 71 -23.499s37.833 -15.666 61.5 -27.999s42 -25.333 55 -39s24.167 -31.334 33.5 -53.001s14 -45.834 14 -72.501c0 -59.333 -20.167 -107.5 -60.5 -144.5
s-101.166 -56.5 -182.499 -58.5v-44zM455.996 161.001c0 40 -11.833 69.168 -35.5 87.501s-63.167 35.5 -118.5 51.5l-4 -290c50 3.33301 88.833 18.166 116.5 44.499s41.5 61.833 41.5 106.5zM141.996 550.002c0 -36 10.833 -62.832 32.5 -80.499
s57.167 -34.167 106.5 -49.5l3 270c-43.333 -3.33301 -77.833 -17.833 -103.5 -43.5s-38.5 -57.834 -38.5 -96.501z" />
    <glyph glyph-name="percent" unicode="%" horiz-adv-x="733" 
d="M44 525c0 54.667 13.667 98.5 41 131.5s62.666 49.5 105.999 49.5s78.5 -16.5 105.5 -49.5s40.5 -76.833 40.5 -131.5c0 -55.333 -13.5 -99.333 -40.5 -132s-62.167 -49 -105.5 -49s-78.666 16.333 -105.999 49s-41 76.667 -41 132zM114 525c0 -53.333 7 -94.333 21 -123
s32.667 -43 56 -43s42 14.333 56 43s21 69.667 21 123s-7 94.333 -21 123s-32.667 43 -56 43s-42 -14.333 -56 -43s-21 -69.667 -21 -123zM178 0h-39l416 700h39zM395 175c0 54.667 13.667 98.5 41 131.5s62.666 49.5 105.999 49.5s78.5 -16.5 105.5 -49.5
s40.5 -76.833 40.5 -131.5c0 -55.333 -13.5 -99.333 -40.5 -132s-62.167 -49 -105.5 -49s-78.666 16.333 -105.999 49s-41 76.667 -41 132zM465 175c0 -53.333 7 -94.333 21 -123s32.667 -43 56 -43s42 14.333 56 43s21 69.667 21 123s-7 94.333 -21 123s-32.667 43 -56 43
s-42 -14.333 -56 -43s-21 -69.667 -21 -123z" />
    <glyph glyph-name="ampersand" unicode="&#x26;" horiz-adv-x="719" 
d="M610 382c0 -96 -17.332 -174.667 -51.999 -236l97 -120l53 -16v-10h-164l-60 71c-50.667 -50.667 -116 -76 -196 -76c-74 0 -132.833 18.5 -176.5 55.5s-65.5 85.833 -65.5 146.5c0 28 4.5 53 13.5 75s22.667 41 41 57s36.5 29.167 54.5 39.5s40.333 21.166 67 32.499
c-42.667 54.667 -64 108 -64 160c0 44.667 13.833 79.834 41.5 105.501s69.167 38.5 124.5 38.5c51.333 0 89.166 -11.167 113.499 -33.5s36.5 -51.833 36.5 -88.5c0 -66.667 -45.333 -122.334 -136 -167.001l206 -252c28.667 56.667 43 129.334 43 218.001l-62 18v9h147v-9
zM314.001 22c64 0 116.334 22.332 157.001 66.999l-216 265c-33.333 -19.333 -59.333 -41.666 -78 -66.999s-28 -59.333 -28 -102c0 -54 14.167 -94.667 42.5 -122s69.166 -41 122.499 -41zM255.002 588.999c0 -44 20.668 -92.665 62.001 -145.998
c41.333 19.333 73.666 40.166 96.999 62.499s35 49.833 35 82.5c0 29.333 -10.167 53.166 -30.5 71.499s-45.833 27.5 -76.5 27.5c-58 0 -87 -32.667 -87 -98z" />
    <glyph glyph-name="quotesingle" unicode="'" horiz-adv-x="170" 
d="M96 499h-21.998c-2 32 -5.5 60 -10.5 84s-9.16699 42.167 -12.5 54.5s-5 21.166 -5 26.499c0 11.333 3.66699 20.833 11 28.5s16.666 11.5 27.999 11.5s20.666 -3.83301 27.999 -11.5s11 -17.167 11 -28.5c0 -5.33301 -1.66699 -14.166 -5 -26.499
s-7.5 -30.5 -12.5 -54.5s-8.5 -52 -10.5 -84z" />
    <glyph glyph-name="parenleft" unicode="(" horiz-adv-x="268" 
d="M48 275c0 105.333 14.833 195.666 44.5 270.999s74.5 145 134.5 209l12 -11c-64 -125.333 -96 -281.666 -96 -468.999s32 -343.666 96 -468.999l-12 -11c-60 64 -104.833 133.667 -134.5 209s-44.5 165.666 -44.5 270.999z" />
    <glyph glyph-name="parenright" unicode=")" horiz-adv-x="268" 
d="M220 275c0 -105.333 -14.833 -195.666 -44.5 -270.999s-74.5 -145 -134.5 -209l-11 11c64 127.333 96 283.666 96 468.999s-32 341.666 -96 468.999l11 11c60 -64 104.833 -133.667 134.5 -209s44.5 -165.666 44.5 -270.999z" />
    <glyph glyph-name="asterisk" unicode="*" horiz-adv-x="432" 
d="M216 499c-15.333 -24 -27.8311 -45.8369 -37.498 -65.5039s-16.5 -34.834 -20.5 -45.501s-7.33301 -17.667 -10 -21c-5.33301 -7.33301 -12.333 -11.666 -21 -12.999s-16.334 0.666992 -23.001 6c-7.33301 4.66699 -11.5 11.334 -12.5 20.001s1.16699 16.667 6.5 24
c2.66699 3.33301 8.16699 8.5 16.5 15.5s20.333 18.167 36 33.5s32.834 34 51.501 56c-28 7.33301 -52.833 12.5 -74.5 15.5s-38.167 4.83301 -49.5 5.5s-19 1.66699 -23 3c-8.66699 2.66699 -15 7.66699 -19 15s-4.66699 15.333 -2 24
c3.33301 8.66699 8.66602 14.834 15.999 18.501s15.333 4.16699 24 1.5c4.66699 -1.33301 11.667 -5 21 -11s23.666 -14.167 42.999 -24.5s42.333 -20.833 69 -31.5c-2 28.667 -4.83301 53.834 -8.5 75.501s-6.83398 37.834 -9.50098 48.501s-4 18.334 -4 23.001
c0 9.33301 3 17 9 23s13.333 9 22 9s16 -3 22 -9s9 -13.667 9 -23c0 -4.66699 -1.33301 -12.334 -4 -23.001s-5.83398 -26.834 -9.50098 -48.501s-6.5 -46.834 -8.5 -75.501c26.667 10.667 49.667 21.167 69 31.5s33.666 18.5 42.999 24.5s16 9.66699 20 11
c20.667 6.66699 34.334 0 41.001 -20c2.66699 -8 1.83398 -16 -2.49902 -24s-10.833 -13.333 -19.5 -16c-4 -1.33301 -11.5 -2.16602 -22.5 -2.49902s-27.333 -2 -49 -5s-46.5 -8.16699 -74.5 -15.5c18 -22 35 -40.667 51 -56s28.333 -26.5 37 -33.5
s14.334 -12.167 17.001 -15.5c5.33301 -7.33301 7.5 -15.5 6.5 -24.5s-5.5 -15.833 -13.5 -20.5c-6.66699 -5.33301 -14.5 -7.16602 -23.5 -5.49902s-15.833 6.16699 -20.5 13.5c-2.66699 4 -6 11 -10 21s-10.833 25 -20.5 45s-22.167 42 -37.5 66z" />
    <glyph glyph-name="plus" unicode="+" horiz-adv-x="453" 
d="M38 285v30h173v173h31v-173h173v-30h-173v-174h-31v174h-173z" />
    <glyph glyph-name="comma" unicode="," horiz-adv-x="201" 
d="M63 -116l-12 12c14.667 14.667 27.167 31.167 37.5 49.5s15.5 32.833 15.5 43.5c0 5.33301 -1.33301 9 -4 11c-17.333 0 -31.833 5.66699 -43.5 17s-17.5 25.333 -17.5 42c0 17.333 5.83301 31.833 17.5 43.5s26.167 17.5 43.5 17.5s32 -5.83301 44 -17.5
s18 -28.5 18 -50.5c0 -46 -33 -102 -99 -168z" />
    <glyph glyph-name="hyphen" unicode="-" horiz-adv-x="303" 
d="M38 273v30h227v-30h-227z" />
    <glyph glyph-name="period" unicode="." horiz-adv-x="201" 
d="M39 58c0 17.333 5.83301 32 17.5 44s26.167 18 43.5 18c18 0 32.833 -6 44.5 -18s17.5 -26.667 17.5 -44s-5.83301 -32 -17.5 -44s-26.5 -18 -44.5 -18c-17.333 0 -31.833 6 -43.5 18s-17.5 26.667 -17.5 44z" />
    <glyph glyph-name="slash" unicode="/" horiz-adv-x="344" 
d="M34 -100h-33l308 850h33z" />
    <glyph glyph-name="zero" unicode="0" horiz-adv-x="653" 
d="M48 350c0 108 25.8311 194.333 77.498 259s118.834 97 201.501 97s149.834 -32.333 201.501 -97s77.5 -151 77.5 -259c0 -108.667 -25.833 -195.167 -77.5 -259.5s-118.834 -96.5 -201.501 -96.5c-83.333 0 -150.666 32.167 -201.999 96.5s-77 150.833 -77 259.5z
M157.998 350c0 -110 15.333 -194.333 46 -253s71.667 -88 123 -88c50.667 0 91.5 29.333 122.5 88s46.5 143 46.5 253c0 109.333 -15.5 193.5 -46.5 252.5s-71.833 88.5 -122.5 88.5c-51.333 0 -92.333 -29.5 -123 -88.5s-46 -143.167 -46 -252.5z" />
    <glyph glyph-name="one" unicode="1" horiz-adv-x="356" 
d="M46 0v10l83 19v633h-96v15l187 30l13 -14v-664l84 -19v-10h-271z" />
    <glyph glyph-name="two" unicode="2" horiz-adv-x="528" 
d="M34 0l0.00195312 38c99.333 91.333 167 157.333 203 198c94 106.667 141 209.334 141 308.001c0 47.333 -11.333 83.333 -34 108s-55 37 -97 37c-31.333 0 -60.333 -9.66699 -87 -29v-99c0 -20 -5.83301 -36 -17.5 -48s-26.834 -18 -45.501 -18
c-18 0 -32.667 5.5 -44 16.5s-17 26.5 -17 46.5c0 41.333 20.5 76 61.5 104s93.833 42 158.5 42c72 0 128 -15 168 -45s60 -74 60 -132c0 -34.667 -7.83301 -69.834 -23.5 -105.501s-34.334 -67.5 -56.001 -95.5s-51 -58.833 -88 -92.5s-69.833 -61.5 -98.5 -83.5l-110 -81
h333l34 92h17v-161h-458z" />
    <glyph glyph-name="three" unicode="3" horiz-adv-x="591" 
d="M190 661l0.00195312 -89c0 -20.667 -5.66699 -37 -17 -49s-26.333 -18 -45 -18c-18 0 -32.833 5.66699 -44.5 17s-17.5 27 -17.5 47c0 42 23.667 75.333 71 100s100.333 37 159 37c67.333 0 120.666 -16 159.999 -48s59 -75.333 59 -130c0 -44.667 -14 -81.5 -42 -110.5
s-67.333 -48.5 -118 -58.5c58.667 -10 104.667 -30.333 138 -61s50 -70 50 -118c0 -56.667 -22.5 -101.834 -67.5 -135.501s-104.167 -50.5 -177.5 -50.5c-62.667 0 -117.834 12.167 -165.501 36.5s-71.5 57.833 -71.5 100.5c0 20 5.66699 35.5 17 46.5s26 16.5 44 16.5
c18.667 0 33.834 -6 45.501 -18s17.5 -28 17.5 -48v-89c26.667 -17.333 58 -26 94 -26c47.333 0 85.5 14.5 114.5 43.5s43.5 69.833 43.5 122.5c0 56.667 -17.167 99 -51.5 127s-81.166 42 -140.499 42h-43v20h42c51.333 0 91.666 13.333 120.999 40s44 67.334 44 122.001
c0 50 -11.833 88.5 -35.5 115.5s-55.167 40.5 -94.5 40.5c-34.667 0 -64.334 -8.33301 -89.001 -25z" />
    <glyph glyph-name="four" unicode="4" horiz-adv-x="584" 
d="M301 0v10l60 19v121h-312v15c58.667 104.667 102.5 198 131.5 280s43.5 167 43.5 255h104c0 -94 -21.667 -181.833 -65 -263.5s-107 -170.5 -191 -266.5h289v246l90 91l14 -14v-323h72v-20h-72v-121l60 -19v-10h-224z" />
    <glyph glyph-name="five" unicode="5" horiz-adv-x="555" 
d="M174 122l0.000976562 -85.999c28 -17.333 56.667 -26 86 -26c46 0 82.167 17.5 108.5 52.5s39.5 82.5 39.5 142.5c0 63.333 -15.5 112.833 -46.5 148.5s-75.833 53.5 -134.5 53.5c-50 0 -91.333 -12.333 -124 -37l-11 12l28 315c139.333 0 254 5.66699 344 17v-86h-312
l-45 -237c44 27.333 97.333 41 160 41c81.333 0 143 -19.667 185 -59s63 -92 63 -158c0 -68 -22.167 -121.667 -66.5 -161s-105.833 -59 -184.5 -59c-58.667 0 -109 11.5 -151 34.5s-63 54.5 -63 94.5c0 20.667 5.66699 36.5 17 47.5s26 16.5 44 16.5
c19.333 0 34.666 -5.83301 45.999 -17.5s17 -27.834 17 -48.501z" />
    <glyph glyph-name="six" unicode="6" horiz-adv-x="585" 
d="M153 368c36.667 36.667 87.998 55.002 153.998 55.002c69.333 0 125.333 -19.333 168 -58s64 -90.334 64 -155.001c0 -66 -21.5 -118.333 -64.5 -157s-100.167 -58 -171.5 -58c-83.333 0 -147 27.667 -191 83s-66 132 -66 230c0 122.667 35 216.667 105 282
s170 103.666 300 114.999l10 -10c-103.333 -20.667 -178.666 -58.5 -225.999 -113.5s-74.666 -126.167 -81.999 -213.5zM151.998 321.002c0 -93.333 12.166 -168.5 36.499 -225.5s60.5 -85.5 108.5 -85.5c41.333 0 74.333 18 99 54s37 84.667 37 146
c0 60.667 -13.667 108 -41 142s-62.333 51 -105 51c-30 0 -57.167 -7.5 -81.5 -22.5s-42.166 -34.833 -53.499 -59.5z" />
    <glyph glyph-name="seven" unicode="7" horiz-adv-x="550" 
d="M293 0l-104 -0.00195312c0 59.333 9.5 118.333 28.5 177s40.5 108.167 64.5 148.5l88.5 149c35 59 62.5 110.167 82.5 153.5h-347l-40 -92h-16v164h444v-15c-13.333 -40 -40.5 -110.667 -81.5 -212s-71.167 -187.666 -90.5 -258.999s-29 -142.666 -29 -213.999z" />
    <glyph glyph-name="eight" unicode="8" horiz-adv-x="575" 
d="M498 539c0 -72.667 -40 -126.335 -120 -161.002c49.333 -20 87 -43.667 113 -71s39 -65.333 39 -114c0 -60 -20.5 -108.167 -61.5 -144.5s-104.5 -54.5 -190.5 -54.5c-77.333 0 -135.333 15.5 -174 46.5s-58 72.833 -58 125.5c0 46 13.333 82.833 40 110.5
s62.667 50.834 108 69.501c-40 16.667 -70.5 37.5 -91.5 62.5s-31.5 60.167 -31.5 105.5c0 56.667 18 102.834 54 138.501s92 53.5 168 53.5c67.333 0 118.333 -15.167 153 -45.5s52 -70.833 52 -121.5zM278 315.999l-59 20c-29.333 -16.667 -51.333 -36.667 -66 -60
s-22 -56.333 -22 -99c0 -111.333 52 -167 156 -167c51.333 0 91.333 13.167 120 39.5s43 63.166 43 110.499c0 44.667 -12.667 76.834 -38 96.501s-70 39.5 -134 59.5zM307 403.999c5.33301 -2 17.667 -6.33301 37 -13c24.667 17.333 43 37 55 59s18 50 18 84
c0 50 -11.5 88.5 -34.5 115.5s-55.5 40.5 -97.5 40.5s-75.333 -12.667 -100 -38s-37 -58.333 -37 -99c0 -40 12 -69.833 36 -89.5s65 -39.5 123 -59.5z" />
    <glyph glyph-name="nine" unicode="9" horiz-adv-x="582" 
d="M427 332c-37.333 -36 -87.3359 -54 -150.003 -54c-69.333 0 -125.166 18.667 -167.499 56s-63.5 88.333 -63.5 153c0 66 22.167 118.833 66.5 158.5s102.5 59.5 174.5 59.5c82 0 144 -26.5 186 -79.5s63 -128.5 63 -226.5c0 -250 -140 -384.333 -420 -403l-10 10
c58 8.66699 107.333 22.5 148 41.5s72.834 43 96.501 72s41.334 60.333 53.001 94s19.5 73.167 23.5 118.5zM429.997 379c0 95.333 -11.332 170.999 -33.999 226.999s-58 84 -106 84c-42.667 0 -76.834 -18.667 -102.501 -56s-38.5 -87 -38.5 -149
c0 -59.333 13.667 -105.333 41 -138s62 -49 104 -49c30.667 0 58 7.33301 82 22s42 34.334 54 59.001z" />
    <glyph glyph-name="colon" unicode=":" horiz-adv-x="201" 
d="M39 58c0 17.333 5.83301 32 17.5 44s26.167 18 43.5 18c18 0 32.833 -6 44.5 -18s17.5 -26.667 17.5 -44s-5.83301 -32 -17.5 -44s-26.5 -18 -44.5 -18c-17.333 0 -31.833 6 -43.5 18s-17.5 26.667 -17.5 44zM39 442c0 17.333 5.83301 32 17.5 44s26.167 18 43.5 18
c18 0 32.833 -6 44.5 -18s17.5 -26.667 17.5 -44s-5.83301 -32 -17.5 -44s-26.5 -18 -44.5 -18c-17.333 0 -31.833 6 -43.5 18s-17.5 26.667 -17.5 44z" />
    <glyph glyph-name="semicolon" unicode=";" horiz-adv-x="201" 
d="M63 -116l-12 12c14.667 14.667 27.167 31.167 37.5 49.5s15.5 32.833 15.5 43.5c0 5.33301 -1.33301 9 -4 11c-17.333 0 -31.833 5.66699 -43.5 17s-17.5 25.333 -17.5 42c0 17.333 5.83301 31.833 17.5 43.5s26.167 17.5 43.5 17.5s32 -5.83301 44 -17.5
s18 -28.5 18 -50.5c0 -46 -33 -102 -99 -168zM39 442c0 17.333 5.83301 32 17.5 44s26.167 18 43.5 18c18 0 32.833 -6 44.5 -18s17.5 -26.667 17.5 -44s-5.83301 -32 -17.5 -44s-26.5 -18 -44.5 -18c-17.333 0 -31.833 6 -43.5 18s-17.5 26.667 -17.5 44z" />
    <glyph glyph-name="less" unicode="&#x3c;" horiz-adv-x="453" 
d="M390 446l14 -28l-307 -143l307 -143l-14 -27l-341 159v22z" />
    <glyph glyph-name="equal" unicode="=" horiz-adv-x="453" 
d="M38 356v31h377v-31h-377zM38 213v30h377v-30h-377z" />
    <glyph glyph-name="greater" unicode="&#x3e;" horiz-adv-x="453" 
d="M49 418l13 28l342 -160v-22l-342 -159l-13 27l306 143z" />
    <glyph glyph-name="question" unicode="?" horiz-adv-x="507" 
d="M262 196l-24.001 0.00195312c-4.66699 39.333 -3.66699 73.333 3 102s16.834 52 30.501 70s27.5 34.833 41.5 50.5s26.167 34.667 36.5 57s15.5 47.833 15.5 76.5c0 41.333 -11 74.5 -33 99.5s-52.333 37.5 -91 37.5c-28.667 0 -55.667 -9 -81 -27v-94
c0 -20.667 -5.83301 -37 -17.5 -49s-26.834 -18 -45.501 -18c-18 0 -32.667 5.5 -44 16.5s-17 27.167 -17 48.5c0 39.333 20.167 72.166 60.5 98.499s90.5 39.5 150.5 39.5c69.333 0 124 -14.833 164 -44.5s60 -70.834 60 -123.501c0 -30 -7.16699 -56.833 -21.5 -80.5
s-31.833 -44 -52.5 -61l-61.5 -51.5c-20.333 -17.333 -37.666 -38.333 -51.999 -63s-21.5 -52.667 -21.5 -84zM190.999 58.002c0 17.333 5.83301 32 17.5 44s26.167 18 43.5 18s32 -6 44 -18s18 -26.667 18 -44s-6 -32 -18 -44s-26.667 -18 -44 -18s-31.833 6 -43.5 18
s-17.5 26.667 -17.5 44z" />
    <glyph glyph-name="at" unicode="@" horiz-adv-x="876" 
d="M754 -44l12.001 -11.998c-33.333 -33.333 -77.666 -58.666 -132.999 -75.999s-115 -26 -179 -26c-126.667 0 -226 32 -298 96s-108 152 -108 264c0 109.333 34.667 195.333 104 258s168 94 296 94c126.667 0 221.667 -30.167 285 -90.5s95 -140.5 95 -240.5
c0 -70.667 -16.167 -126.334 -48.5 -167.001s-78.833 -61 -139.5 -61c-61.333 0 -96.333 18.667 -105 56l-3 1c-36.667 -38 -82.334 -57 -137.001 -57s-96.5 18.667 -125.5 56s-43.5 86.666 -43.5 147.999c0 72 19.667 127 59 165s95 57 167 57
c38 0 75.333 -6.66699 112 -20l44 23l14 -15v-350c0 -27.333 11.333 -41 34 -41c25.333 0 45.833 17 61.5 51s23.5 80.667 23.5 140c0 216 -97.667 324 -293 324c-102.667 0 -180.167 -29.167 -232.5 -87.5s-78.5 -138.5 -78.5 -240.5c0 -104 28.5 -185.5 85.5 -244.5
s143.833 -88.5 260.5 -88.5c52.667 0 103.667 6.66699 153 20s88.666 34.666 117.999 63.999zM531.001 72.002l-0.000976562 313.001c-30.667 14.667 -57.667 22 -81 22c-41.333 0 -73.166 -16.833 -95.499 -50.5s-33.5 -81.834 -33.5 -144.501
c0 -56.667 10.5 -102 31.5 -136s49.5 -51 85.5 -51c34.667 0 65.667 15.667 93 47z" />
    <glyph glyph-name="A" unicode="A" horiz-adv-x="755" 
d="M402 700l281 -671l64 -19v-10h-241v10l66 19l-84 203h-302l-88 -203l88 -19v-10h-178v10l68 19l293 671h33zM341 590l-146 -337h284z" />
    <glyph glyph-name="B" unicode="B" horiz-adv-x="654" 
d="M19 700l320.001 0.000976562c71.333 0 129.166 -15.5 173.499 -46.5s66.5 -73.5 66.5 -127.5c0 -44 -14.5 -80.333 -43.5 -109s-68.5 -48 -118.5 -58c58.667 -10 105 -30.333 139 -61s51 -69.334 51 -116.001c0 -56 -24.667 -100.333 -74 -133s-114 -49 -194 -49h-320v8
l65 16v652l-65 15v9zM192.001 20.001h127c54 0 97.167 14.167 129.5 42.5s48.5 68.833 48.5 121.5c0 53.333 -16.167 94 -48.5 122s-75.5 42 -129.5 42h-127v-328zM319.001 680.001l-126.998 -0.000976562v-312h127c45.333 0 81.666 13.333 108.999 40s41 65.334 41 116.001
c0 50 -13.833 88.5 -41.5 115.5s-63.834 40.5 -108.501 40.5z" />
    <glyph glyph-name="C" unicode="C" horiz-adv-x="704" 
d="M641 107l11 -12.001c-66 -67.333 -152.333 -101 -259 -101c-105.333 0 -189.166 32 -251.499 96s-93.5 150.667 -93.5 260c0 108.667 31 195.167 93 259.5s144.667 96.5 248 96.5c86 0 155.333 -20 208 -60l42 25l10 -10v-138h-17c-6.66699 32.667 -19 60.334 -37 83.001
s-38.667 39.167 -62 49.5s-44.833 17.5 -64.5 21.5s-39.5 6 -59.5 6c-78 0 -138.833 -28.167 -182.5 -84.5s-65.5 -137.833 -65.5 -244.5c0 -102 22.667 -182.167 68 -240.5s112.333 -87.5 201 -87.5c87.333 0 157.666 27 210.999 81z" />
    <glyph glyph-name="D" unicode="D" horiz-adv-x="726" 
d="M19 700h319c101.333 0 183.333 -31.5 246 -94.5s94 -148.167 94 -255.5c0 -108 -31.333 -193.333 -94 -256s-144.667 -94 -246 -94h-319v8l65 16v652l-65 15v9zM338 680h-146v-660h146c68.667 0 123.667 28.167 165 84.5s62 137.833 62 244.5
c0 107.333 -20.667 189.333 -62 246s-96.333 85 -165 85z" />
    <glyph glyph-name="E" unicode="E" horiz-adv-x="619" 
d="M192 20h312l47 102h16v-122h-548v8l65 16v652l-65 15v9h538v-123h-16l-47 103h-302v-308h244l21 78h15v-177h-15l-21 78h-244v-331z" />
    <glyph glyph-name="F" unicode="F" horiz-adv-x="596" 
d="M414 351h-222v-322l95 -19v-10h-268v10l65 19v647l-65 15v9h525v-123h-17l-46 103h-289v-308h222l21 78h16v-177h-16z" />
    <glyph glyph-name="G" unicode="G" horiz-adv-x="746" 
d="M664 307l0.000976562 -271.001l-13 -13l-55 23c-56.667 -34.667 -123.667 -52 -201 -52c-106 0 -190.333 31.833 -253 95.5s-94 150.5 -94 260.5c0 109.333 31.167 196 93.5 260s145.5 96 249.5 96c86.667 0 156.334 -20 209.001 -60l43 25l10 -10v-138h-17
c-7.33301 32.667 -20 60.334 -38 83.001s-38.833 39.167 -62.5 49.5s-45.5 17.5 -65.5 21.5s-40 6 -60 6c-78.667 0 -139.834 -28.5 -183.501 -85.5s-65.5 -140.167 -65.5 -249.5c0 -100 21.333 -179.833 64 -239.5s104 -89.5 184 -89.5c59.333 0 108.666 15 147.999 45v243
l-65 18v10h234v-10z" />
    <glyph glyph-name="H" unicode="H" horiz-adv-x="745" 
d="M19 10l65 19v642l-65 19v10h238v-10l-65 -19v-304h362v304l-65 19v10h237v-10l-65 -19v-642l65 -19v-10h-237v10l65 19v317h-362v-317l65 -19v-10h-238v10z" />
    <glyph glyph-name="I" unicode="I" horiz-adv-x="276" 
d="M191 671v-642l62 -19v-10h-233v10l65 19v642l-65 19v10h233v-10z" />
    <glyph glyph-name="J" unicode="J" horiz-adv-x="276" 
d="M85 16v655.001l-65 19v10h232v-10l-61 -19v-655c0 -48.667 -13.167 -90.334 -39.5 -125.001s-65.5 -66.667 -117.5 -96l-11 11c41.333 59.333 62 129.333 62 210z" />
    <glyph glyph-name="K" unicode="K" horiz-adv-x="689" 
d="M188 671v-358l336 358l-81 19v10h180v-10l-71 -19l-212 -228l276 -417l58 -16v-10h-160l-248 370l-78 -84v-257l65 -19v-10h-237v10l65 19v642l-65 19v10h237v-10z" />
    <glyph glyph-name="L" unicode="L" horiz-adv-x="587" 
d="M192 20h277l47 102h16v-122h-513v8l65 16v647l-65 19v10h238v-10l-65 -19v-651z" />
    <glyph glyph-name="M" unicode="M" horiz-adv-x="920" 
d="M797 671l46 -642l62 -19v-10h-234v10l65 19l-42 579l-257 -608h-33l-261 609l-43 -582l61 -19v-8h-147v8l65 19l47 644l-65 19v10h153l250 -590l248 590h147v-10z" />
    <glyph glyph-name="N" unicode="N" horiz-adv-x="697" 
d="M19 8l65 19v644l-65 19v10h178l395 -550v523l-65 18v9h151v-9l-65 -18v-673h-31l-477 662v-635l65 -19v-8h-151v8z" />
    <glyph glyph-name="O" unicode="O" horiz-adv-x="769" 
d="M48 350c0 108 31 194.333 93 259s143.333 97 244 97c100 0 181.167 -32.333 243.5 -97s93.5 -151 93.5 -259c0 -108.667 -31.167 -195.167 -93.5 -259.5s-143.5 -96.5 -243.5 -96.5c-100.667 0 -182 32.167 -244 96.5s-93 150.833 -93 259.5zM161 349
c0 -109.333 20.5 -193.333 61.5 -252s95.167 -88 162.5 -88s121.333 29.333 162 88s61 142.667 61 252c0 110 -20.333 194.5 -61 253.5s-94.667 88.5 -162 88.5s-121.5 -29.5 -162.5 -88.5s-61.5 -143.5 -61.5 -253.5z" />
    <glyph glyph-name="P" unicode="P" horiz-adv-x="616" 
d="M288 680h-96v-651l100 -19v-10h-273v10l65 19v647l-65 15v9h282c80 0 144.667 -18 194 -54s74 -84.667 74 -146s-24.667 -110 -74 -146s-114 -54 -194 -54h-81l-13 13v7h81c52 0 93.5 15.5 124.5 46.5s46.5 75.5 46.5 133.5s-15.5 102.5 -46.5 133.5
s-72.5 46.5 -124.5 46.5z" />
    <glyph glyph-name="Q" unicode="Q" horiz-adv-x="769" 
d="M760 -67l8.99805 -9.00098c-35.333 -35.333 -82 -53 -140 -53c-22.667 0 -44.667 2.33301 -66 7s-43.166 12.5 -65.499 23.5s-40 20.167 -53 27.5s-32.333 19.666 -58 36.999s-42.5 28.333 -50.5 33c-88 9.33301 -158 45.333 -210 108s-78 143.334 -78 242.001
c0 108.667 31 195.334 93 260.001s143.333 97 244 97c100 0 181.167 -32.333 243.5 -97s93.5 -151 93.5 -259c0 -92 -23 -168.333 -69 -229s-107.667 -99 -185 -115c20.667 -8 44.834 -20.667 72.501 -38s53 -31.5 76 -42.5s45.167 -16.5 66.5 -16.5c35.333 0 61 8 77 24z
M160.998 348.999c0 -109.333 20.333 -192.332 61 -248.999s95 -85 163 -85c67.333 0 121.333 28.5 162 85.5s61 139.833 61 248.5c0 109.333 -20.333 193.666 -61 252.999s-94.667 89 -162 89s-121.5 -29.5 -162.5 -88.5s-61.5 -143.5 -61.5 -253.5z" />
    <glyph glyph-name="R" unicode="R" horiz-adv-x="659" 
d="M567 510c0 -49.333 -16.333 -90.168 -49 -122.501s-76.667 -52.166 -132 -59.499c24 -8.66699 47 -32.667 69 -72l132 -230l58 -16v-10h-155l-182 323h-116v-294l65 -19v-10h-238v10l65 19v647l-65 15v9h300c74.667 0 134.667 -16.833 180 -50.5s68 -80.167 68 -139.5z
M306 679.998l-114 -0.000976562v-337h114c45.333 0 81.833 14.333 109.5 43s41.5 70.334 41.5 125.001s-13.833 96.5 -41.5 125.5s-64.167 43.5 -109.5 43.5z" />
    <glyph glyph-name="S" unicode="S" horiz-adv-x="589" 
d="M55 21l0.00195312 142.002h18c7.33301 -30.667 19 -56.834 35 -78.501s34.333 -37.667 55 -48s40.167 -17.5 58.5 -21.5s37.5 -6 57.5 -6c55.333 0 98.666 13.333 129.999 40s47 64 47 112c0 22.667 -3.5 41.667 -10.5 57s-19.333 28.5 -37 39.5
s-34.834 19.5 -51.501 25.5s-42 14 -76 24l-37.5 11.5c-7.66699 2.33301 -19.5 6.16602 -35.5 11.499s-27.833 9.83301 -35.5 13.5l-31 15.5c-13 6.66699 -22.667 13.167 -29 19.5s-13.666 14.166 -21.999 23.499s-14.5 19 -18.5 29s-7.5 21.667 -10.5 35
s-4.5 27.333 -4.5 42c0 58.667 19.333 106.334 58 143.001s96 55 172 55c64 0 120 -15.667 168 -47l42 29l10 -10v-142h-18c-6.66699 30.667 -17.334 56.834 -32.001 78.501s-31.5 37.667 -50.5 48s-36.833 17.666 -53.5 21.999s-33.667 6.5 -51 6.5
c-48.667 0 -87.5 -13 -116.5 -39s-43.5 -60 -43.5 -102c0 -16.667 2.83301 -31.667 8.5 -45s12.167 -24 19.5 -32s19.666 -16 36.999 -24s31.833 -14 43.5 -18s30.167 -10 55.5 -18c30 -9.33301 53.667 -17.166 71 -23.499s37.833 -15.666 61.5 -27.999s42 -25.333 55 -39
s24.167 -31.334 33.5 -53.001s14 -45.834 14 -72.501c0 -60.667 -21 -109.667 -63 -147s-105 -56 -189 -56c-69.333 0 -129.666 15.667 -180.999 47l-43 -30z" />
    <glyph glyph-name="T" unicode="T" horiz-adv-x="672" 
d="M577 680h-187v-651l65 -19v-10h-238v10l65 19v651h-186l-47 -103h-16v123h607v-123h-17z" />
    <glyph glyph-name="U" unicode="U" horiz-adv-x="719" 
d="M634 673l0.000976562 -413c0 -82 -25.167 -146.833 -75.5 -194.5s-116.5 -71.5 -198.5 -71.5c-82.667 0 -149.334 24 -200.001 72s-76 112.667 -76 194v411l-65 19v10h238v-10l-65 -19v-411c0 -72 19.167 -127.833 57.5 -167.5s88.5 -59.5 150.5 -59.5
c63.333 0 114.833 20.333 154.5 61s59.5 96 59.5 166v413l-65 18v9h150v-9z" />
    <glyph glyph-name="V" unicode="V" horiz-adv-x="755" 
d="M361 0l-289 671l-64 19v10h241v-10l-66 -19l238 -561l236 561l-88 19v10h178v-10l-68 -19l-285 -671h-33z" />
    <glyph glyph-name="W" unicode="W" horiz-adv-x="1189" 
d="M805 0l-212 508l-208 -508h-32l-281 671l-64 19v10h241v-10l-66 -19l230 -561l169 424l-58 137l-64 19v10h241v-10l-66 -19l230 -561l226 561l-88 19v10h178v-10l-68 -19l-275 -671h-33z" />
    <glyph glyph-name="X" unicode="X" horiz-adv-x="742" 
d="M553 29l-218 302l-224 -302l84 -19v-10h-179v10l71 19l235 317l-233 325l-61 19v10h238v-10l-65 -19l199 -280l199 280l-85 19v10h179v-10l-70 -19l-210 -296l251 -346l62 -19v-10h-239v10z" />
    <glyph glyph-name="Y" unicode="Y" horiz-adv-x="724" 
d="M183 671l218 -345l221 345l-84 19v10h178v-10l-71 -19l-234 -367v-275l62 -19v-10h-234v10l65 19v275l-234 367l-62 19v10h241v-10z" />
    <glyph glyph-name="Z" unicode="Z" horiz-adv-x="613" 
d="M41 0v15l415 665h-342l-48 -103h-17v123h519v-15l-413 -665h357l48 102h17v-122h-536z" />
    <glyph glyph-name="bracketleft" unicode="[" horiz-adv-x="285" 
d="M155 721v-892l112 -19v-10h-206v950h206v-10z" />
    <glyph glyph-name="backslash" unicode="\" horiz-adv-x="344" 
d="M342 -100h-33l-308 850h33z" />
    <glyph glyph-name="bracketright" unicode="]" horiz-adv-x="285" 
d="M130 -171v892l-112 19v10h206v-950h-206v10z" />
    <glyph glyph-name="asciicircum" unicode="^" horiz-adv-x="405" 
d="M195 705h15l162 -198l-10 -11l-160 134l-159 -134l-10 11z" />
    <glyph glyph-name="underscore" unicode="_" horiz-adv-x="630" 
d="M1 -81v31h627v-31h-627z" />
    <glyph glyph-name="grave" unicode="`" horiz-adv-x="277" 
d="M98 704l138 -141l-10 -11l-185 94z" />
    <glyph glyph-name="a" unicode="a" horiz-adv-x="546" 
d="M366 60l-3.00195 3.00098c-49.333 -46 -109 -69 -179 -69c-45.333 0 -79.166 10.333 -101.499 31s-33.5 49 -33.5 85c0 36.667 14.167 66 42.5 88s58.833 36.833 91.5 44.5s89 18.167 169 31.5c4.66699 0.666992 8.33398 1.33398 11.001 2.00098v94
c0 35.333 -9.16699 63.666 -27.5 84.999s-43.833 32 -76.5 32c-26 0 -50.667 -7.66699 -74 -23v-81c0 -20 -5.66699 -36 -17 -48s-26 -18 -44 -18c-17.333 0 -31.666 5.5 -42.999 16.5s-17 26.5 -17 46.5c0 37.333 19.5 67.166 58.5 89.499s85.167 33.5 138.5 33.5
c64.667 0 115.167 -14.167 151.5 -42.5s54.5 -64.833 54.5 -109.5v-305c0 -16.667 8 -25 24 -25c14.667 0 25.667 3.66699 33 11l7 -7c-18 -18 -48.333 -27 -91 -27c-44.667 0 -69.334 20.667 -74.001 62zM362.998 86.001v175c-79.333 -12.667 -130 -24 -152 -34
c-35.333 -16.667 -54 -47.667 -56 -93v-11c0 -30.667 7.33301 -54 22 -70s35 -24 61 -24c47.333 0 89 19 125 57z" />
    <glyph glyph-name="b" unicode="b" horiz-adv-x="582" 
d="M79 28v659l-60 13v11l151 16l13 -14v-213l-3 -62l3 -3c44 46 98.667 69 164 69c64.667 0 113.5 -22 146.5 -66s49.5 -103 49.5 -177c0 -86.667 -22.833 -152.667 -68.5 -198s-113.167 -68 -202.5 -68c-72.667 0 -137 11 -193 33zM183 413l0.000976562 -384
c38 -12.667 69.667 -19 95 -19c51.333 0 90.666 20.333 117.999 61s41 98.667 41 174c0 67.333 -12.833 121.5 -38.5 162.5s-59.5 61.5 -101.5 61.5c-45.333 0 -83.333 -18.667 -114 -56z" />
    <glyph glyph-name="c" unicode="c" horiz-adv-x="555" 
d="M380 377l0.000976562 86c-28 17.333 -56.333 26 -85 26c-46.667 0 -83.167 -20.167 -109.5 -60.5s-39.5 -94.833 -39.5 -163.5c0 -76 15.667 -135 47 -177s77.666 -63 138.999 -63c58 0 107 20 147 60l11 -12c-52 -52 -118.333 -78 -199 -78
c-82 0 -144.5 22.833 -187.5 68.5s-64.5 107.167 -64.5 184.5c0 79.333 22 141.833 66 187.5s106.667 68.5 188 68.5c56.667 0 106 -11.5 148 -34.5s63 -54.5 63 -94.5c0 -20.667 -5.66699 -36.5 -17 -47.5s-26.333 -16.5 -45 -16.5s-33.667 6 -45 18s-17 28 -17 48z" />
    <glyph glyph-name="d" unicode="d" horiz-adv-x="584" 
d="M504 33l59.999 -13.001v-11l-150 -12l-13 13l3 50l-3 3c-43.333 -45.333 -98 -68 -164 -68c-65.333 0 -114.666 21.833 -147.999 65.5s-50 102.834 -50 177.501c0 84.667 21.5 150.167 64.5 196.5s103.167 69.5 180.5 69.5c40.667 0 79.667 -9 117 -27v210l-60 13v11
l150 16l13 -14v-680zM400.999 85.999l-0.000976562 376.999c-36 17.333 -69 26 -99 26c-50 0 -88.5 -20.5 -115.5 -61.5s-40.5 -98.833 -40.5 -173.5c0 -67.333 12.833 -121.666 38.5 -162.999s59.834 -62 102.501 -62c44.667 0 82.667 19 114 57z" />
    <glyph glyph-name="e" unicode="e" horiz-adv-x="558" 
d="M495 250l-349 -0.000976562c0 -71.333 16.333 -126.5 49 -165.5s81 -58.5 145 -58.5c58.667 0 107.667 19.667 147 59l11 -12c-52 -52 -119 -78 -201 -78c-84 0 -148 23 -192 69s-66 106 -66 180c0 78.667 23.5 141.667 70.5 189s107.167 71 180.5 71
c65.333 0 119 -18.667 161 -56s63 -85.666 63 -144.999c0 -16 -1.66699 -29.333 -5 -40zM294 488.999c-39.333 0 -73.333 -19.167 -102 -57.5s-44 -93.833 -46 -166.5l266 15c0 68.667 -10.333 120.667 -31 156s-49.667 53 -87 53z" />
    <glyph glyph-name="f" unicode="f" horiz-adv-x="357" 
d="M79 507l0.000976562 67.001c0 47.333 14.833 84.166 44.5 110.499s73.167 39.5 130.5 39.5c38.667 0 71.667 -7.33301 99 -22s41 -36.334 41 -65.001c0 -16 -4.5 -29 -13.5 -39s-21.167 -15 -36.5 -15c-16.667 0 -30.667 5.83301 -42 17.5s-17 27.167 -17 46.5v54
c-10.667 5.33301 -20.334 8 -29.001 8c-22.667 0 -40.5 -12.167 -53.5 -36.5s-19.5 -57.166 -19.5 -98.499v-74h162v-20h-162v-451l90 -19v-10h-254v10l60 19v451h-60v8z" />
    <glyph glyph-name="g" unicode="g" horiz-adv-x="562" 
d="M443 469l-42.999 0.000976562c50 -30 75 -73.333 75 -130c0 -49.333 -19.333 -88.5 -58 -117.5s-89.334 -43.5 -152.001 -43.5c-52.667 0 -96 10 -130 30c-18.667 -21.333 -28 -44.333 -28 -69c0 -36.667 26.333 -55 79 -55h169c106.667 0 160 -41 160 -123
c0 -52.667 -23.333 -93.167 -70 -121.5s-115.667 -42.5 -207 -42.5c-64.667 0 -115 7.5 -151 22.5s-54 37.167 -54 66.5c0 38 30.667 74.667 92 110c-46.667 13.333 -70 45 -70 95c0 22.667 5.33301 43.167 16 61.5s28 39.166 52 62.499c-44.667 30 -67 71.333 -67 124
c0 49.333 19.333 88.833 58 118.5s89 44.5 151 44.5c8 0 20 -0.666992 36 -2h210v-10zM155.001 340.001c0 -47.333 10 -83.668 30 -109.001s46.667 -38 80 -38s60.166 12.667 80.499 38s30.5 61.666 30.5 108.999c0 46.667 -10.167 82.834 -30.5 108.501
s-47.166 38.5 -80.499 38.5s-60 -12.667 -80 -38s-30 -61.666 -30 -108.999zM185.001 -11.001c-8 0 -17.999 0.666992 -29.999 2c-26 -29.333 -39 -57.333 -39 -84c0 -34 12.167 -58 36.5 -72s59.833 -21 106.5 -21c59.333 0 106.166 9.33301 140.499 28
s51.5 44.667 51.5 78c0 20 -7 36.5 -21 49.5s-35.667 19.5 -65 19.5h-180z" />
    <glyph glyph-name="h" unicode="h" 
d="M183 407l-0.000976562 -378l53 -19v-10h-217v10l60 19v658l-60 13v11l151 16l13 -14v-213l-3 -68l3 -3c25.333 24 55.833 42.5 91.5 55.5s70.5 19.5 104.5 19.5c51.333 0 89.5 -15.167 114.5 -45.5s37.5 -72.5 37.5 -126.5v-303l60 -19v-10h-217v10l53 19v286
c0 102.667 -33 154 -99 154c-23.333 0 -48.666 -5.66699 -75.999 -17s-50.333 -26.333 -69 -45z" />
    <glyph glyph-name="i" unicode="i" horiz-adv-x="262" 
d="M19 0v10l60 19v438l-60 13v11l151 16l13 -14v-464l60 -19v-10h-224zM53 640c0 20.667 6.66699 37.667 20 51s30.333 20 51 20s37.834 -6.66699 51.501 -20s20.5 -30.333 20.5 -51s-6.83301 -37.667 -20.5 -51s-30.834 -20 -51.501 -20s-37.667 6.66699 -51 20
s-20 30.333 -20 51z" />
    <glyph glyph-name="j" unicode="j" horiz-adv-x="262" 
d="M79 16v451.001l-60 13v11l151 16l13 -14v-477c0 -48.667 -12.833 -90.334 -38.5 -125.001s-64.167 -66.667 -115.5 -96l-11 11c40.667 58.667 61 128.667 61 210zM53 640.001c0 20.667 6.66699 37.667 20 51s30.333 20 51 20s37.834 -6.66699 51.501 -20
s20.5 -30.333 20.5 -51s-6.83301 -37.667 -20.5 -51s-30.834 -20 -51.501 -20s-37.667 6.66699 -51 20s-20 30.333 -20 51z" />
    <glyph glyph-name="k" unicode="k" horiz-adv-x="563" 
d="M404 0l-160 262l-61 -66v-167l60 -19v-10h-224v10l60 19v658l-60 13v11l151 16l13 -14v-490l234 248l-77 19v10h170v-10l-66 -19l-130 -141l185 -304l53 -16v-10h-148z" />
    <glyph glyph-name="l" unicode="l" horiz-adv-x="262" 
d="M19 0v10l60 19v658l-60 13v11l151 16l13 -14v-684l60 -19v-10h-224z" />
    <glyph glyph-name="m" unicode="m" horiz-adv-x="886" 
d="M183 404l-0.00195312 -375.001l51 -19v-10h-215v10l60 19v438l-60 13v11l151 16l13 -14l-3 -61l3 -3c22 23.333 49.167 41.666 81.5 54.999s63.5 20 93.5 20c60 0 100.333 -26 121 -78c25.333 24.667 55.333 43.834 90 57.501s68 20.5 100 20.5
c92 0 138 -57.333 138 -172v-303l60 -19v-10h-215v10l51 19v286c0 102.667 -30.333 154 -91 154c-21.333 0 -43.666 -5.16699 -66.999 -15.5s-43.666 -25.166 -60.999 -44.499c7.33301 -23.333 11 -49 11 -77v-303l51 -19v-10h-206v10l51 19v286c0 102.667 -29 154 -87 154
c-21.333 0 -43 -5.83301 -65 -17.5s-40.667 -27.5 -56 -47.5z" />
    <glyph glyph-name="n" unicode="n" 
d="M183 407v-377.999l53 -19v-10h-217v10l60 19v438l-60 13v11l151 16l13 -14l-3 -61l3 -3c24.667 23.333 55 41.666 91 54.999s71 20 105 20c51.333 0 89.5 -15.167 114.5 -45.5s37.5 -72.5 37.5 -126.5v-303l60 -19v-10h-217v10l53 19v286c0 46.667 -8.33301 84 -25 112
s-42.667 42 -78 42c-24.667 0 -50 -5.66699 -76 -17s-47.667 -26.333 -65 -45z" />
    <glyph glyph-name="o" unicode="o" horiz-adv-x="583" 
d="M39 249c0 77.333 23.3311 139.168 69.998 185.501s107.667 69.5 183 69.5c74.667 0 135.334 -23.333 182.001 -70s70 -108.334 70 -185.001c0 -77.333 -23.167 -139 -69.5 -185s-107.166 -69 -182.499 -69s-136.333 23 -183 69s-70 107.667 -70 185zM145.998 249.002
c0 -76.667 13.333 -135.667 40 -177s62 -62 106 -62c44.667 0 80.167 20.667 106.5 62s39.5 100.333 39.5 177c0 77.333 -13.167 136.666 -39.5 177.999s-61.833 62 -106.5 62c-44 0 -79.333 -20.667 -106 -62s-40 -100.666 -40 -177.999z" />
    <glyph glyph-name="p" unicode="p" horiz-adv-x="582" 
d="M19 -200l0.000976562 10l60 19v638l-60 13v11l151 16l13 -14l-3 -55l3 -3c44 46 98.667 69 164 69c64.667 0 113.5 -22 146.5 -66s49.5 -103 49.5 -177c0 -84.667 -21.333 -150.167 -64 -196.5s-102.334 -69.5 -179.001 -69.5c-44.667 0 -83.667 9 -117 27v-193l90 -19
v-10h-254zM183.001 413v-376c34 -18 66.667 -27 98 -27c50 0 88.5 20.5 115.5 61.5s40.5 98.833 40.5 173.5c0 67.333 -12.667 121.5 -38 162.5s-59.333 61.5 -102 61.5c-44.667 0 -82.667 -18.667 -114 -56z" />
    <glyph glyph-name="q" unicode="q" horiz-adv-x="572" 
d="M504 -171l59.998 -19v-10h-223v10l60 19v171l3 60l-3 3c-43.333 -45.333 -98 -68 -164 -68c-65.333 0 -114.666 22 -147.999 66s-50 102.667 -50 176c0 86 22.833 152 68.5 198s111.5 69 197.5 69c44.667 0 89.334 -8 134.001 -24l52 27l13 -14v-664zM400.998 86
l-0.000976562 375.999c-35.333 18 -68.333 27 -99 27c-50 0 -88.5 -20.5 -115.5 -61.5s-40.5 -98.833 -40.5 -173.5c0 -67.333 12.833 -121.666 38.5 -162.999s59.834 -62 102.501 -62c44.667 0 82.667 19 114 57z" />
    <glyph glyph-name="r" unicode="r" horiz-adv-x="484" 
d="M79 29v437.997l-60 13v11l151 16l13 -14l-3 -88l3 -3l5.5 11c2.33301 4.66699 8 12.834 17 24.501s18.667 22 29 31s24 17.167 41 24.5s34.833 11 53.5 11c32.667 0 60.167 -10 82.5 -30s33.5 -46 33.5 -78c0 -22.667 -5.66699 -39.5 -17 -50.5s-26 -16.5 -44 -16.5
c-19.333 0 -34.833 6 -46.5 18s-17.5 28.333 -17.5 49v80c-3.33301 2.66699 -8.66602 4 -15.999 4c-14.667 0 -28.834 -3.83301 -42.501 -11.5s-25.167 -17.167 -34.5 -28.5s-17.333 -22.666 -24 -33.999s-11.667 -20.666 -15 -27.999l-5 -12v-337l90 -19v-10h-254v10z" />
    <glyph glyph-name="s" unicode="s" horiz-adv-x="457" 
d="M49 19l-0.000976562 109h21c17.333 -78.667 66.333 -118 147 -118c38.667 0 69.834 9 93.501 27s35.5 42.667 35.5 74c0 28 -9.66699 48 -29 60s-52.333 24 -99 36c-22 6 -38.5 10.667 -49.5 14s-25.333 9.16602 -43 17.499s-30.834 17.166 -39.501 26.499
s-16.5 22 -23.5 38s-10.5 34.333 -10.5 55c0 44.667 14.5 80.167 43.5 106.5s73.5 39.5 133.5 39.5c47.333 0 90 -10 128 -30l21 17l10 -10v-108h-20c-6 30 -17.167 54.167 -33.5 72.5s-32.666 30.166 -48.999 35.499s-33.833 8 -52.5 8c-34 0 -61 -8.66699 -81 -26
s-30 -39.666 -30 -66.999c0 -25.333 8.83301 -44 26.5 -56s46.167 -23.667 85.5 -35l45 -14.5c9.33301 -3 22.833 -8 40.5 -15s30.834 -14.167 39.501 -21.5s18.167 -16.333 28.5 -27s17.666 -23.167 21.999 -37.5s6.5 -30.166 6.5 -47.499
c0 -45.333 -16 -81.166 -48 -107.499s-81.667 -39.5 -149 -39.5c-54 0 -100.333 10.333 -139 31l-21 -17z" />
    <glyph glyph-name="t" unicode="t" horiz-adv-x="384" 
d="M18 480l-0.00195312 8.00098c64.667 15.333 115.334 57.666 152.001 126.999l13 -13v-102h164v-20h-164v-351c0 -32 7 -57.167 21 -75.5s34.667 -27.5 62 -27.5c30 0 56.667 11.667 80 35l11 -11c-35.333 -36.667 -80.666 -55 -135.999 -55
c-46 0 -81.167 12.333 -105.5 37s-36.5 57 -36.5 97v351h-61z" />
    <glyph glyph-name="u" unicode="u" horiz-adv-x="607" 
d="M528 33l60 -12.999v-11l-151 -12l-13 13l3 57l-3 3c-24 -24.667 -52.833 -43.334 -86.5 -56.001s-67.167 -19 -100.5 -19c-51.333 0 -90.5 14.333 -117.5 43s-40.5 67 -40.5 115v314l-60 13v11l151 16l13 -14v-323c0 -94 34.667 -141 104 -141c53.333 0 99 21 137 63v375
l-60 13v11l150 16l14 -14v-460z" />
    <glyph glyph-name="v" unicode="v" horiz-adv-x="601" 
d="M285 0l-215 471l-59 19v10h228v-10l-61 -19l164 -363l162 363l-83 19v10h169v-10l-64 -19l-212 -471h-29z" />
    <glyph glyph-name="w" unicode="w" horiz-adv-x="899" 
d="M593 0l-142 341l-143 -341h-36l-202 471l-59 19v10h222v-10l-55 -19l152 -372l110 268l-44 104l-55 19v10h223v-10l-61 -19l148 -372l148 372l-82 19v10h168v-10l-63 -19l-192 -471h-37z" />
    <glyph glyph-name="x" unicode="x" horiz-adv-x="585" 
d="M405 29l-148 198l-152 -198l80 -19v-10h-169v10l66 19l162 214l-166 228l-57 19v10h225v-10l-60 -19l137 -186l142 186l-80 19v10h169v-10l-65 -19l-153 -202l177 -240l57 -19v-10h-226v10z" />
    <glyph glyph-name="y" unicode="y" horiz-adv-x="601" 
d="M288 -9l-217.999 480l-59 19v10h228v-10l-61 -19l164 -363l162 363l-83 19v10h169v-10l-64 -19l-212 -471c-33.333 -73.333 -61.833 -125.333 -85.5 -156s-51.5 -46 -83.5 -46c-22 0 -42.167 5.83301 -60.5 17.5s-27.5 30.167 -27.5 55.5
c0 17.333 4.66699 30.833 14 40.5s21.666 14.5 36.999 14.5c16 0 29 -5 39 -15s15 -23.333 15 -40v-40c4 -2 7.66699 -3 11 -3c18 0 35.833 13.833 53.5 41.5s38.167 68.167 61.5 121.5z" />
    <glyph glyph-name="z" unicode="z" horiz-adv-x="483" 
d="M36 0v15l298 468h-239l-32 -92h-17v109h394v-15l-297 -468h253l32 92h17v-109h-409z" />
    <glyph glyph-name="braceleft" unicode="{" horiz-adv-x="371" 
d="M97 275c42.667 -13.333 76.5 -40.667 101.5 -82s37.5 -92.333 37.5 -153c0 -74 8.83301 -130.833 26.5 -170.5s41.5 -59.5 71.5 -59.5v-15c-58.667 0 -106.167 22 -142.5 66s-54.5 103 -54.5 177s-8.83301 130.667 -26.5 170s-41.5 59 -71.5 59v16
c30 0 53.833 19.667 71.5 59s26.5 96 26.5 170s18.167 133 54.5 177s83.833 66 142.5 66v-15c-30 0 -53.833 -19.833 -71.5 -59.5s-26.5 -96.5 -26.5 -170.5c0 -61.333 -12.333 -112.5 -37 -153.5s-58.667 -68.167 -102 -81.5z" />
    <glyph glyph-name="bar" unicode="|" horiz-adv-x="189" 
d="M110 -200h-31v950h31v-950z" />
    <glyph glyph-name="braceright" unicode="}" horiz-adv-x="371" 
d="M276 275c-43.333 13.333 -77.333 40.501 -102 81.501s-37 92.167 -37 153.5c0 74 -8.83301 130.833 -26.5 170.5s-41.5 59.5 -71.5 59.5v15c58.667 0 106.167 -22 142.5 -66s54.5 -103 54.5 -177s8.83301 -130.667 26.5 -170s41.5 -59 71.5 -59v-16
c-30 0 -53.833 -19.667 -71.5 -59s-26.5 -96 -26.5 -170s-18.167 -133 -54.5 -177s-83.833 -66 -142.5 -66v15c30 0 53.833 19.833 71.5 59.5s26.5 96.5 26.5 170.5c0 60.667 12.5 111.667 37.5 153s58.833 68.666 101.5 81.999z" />
    <glyph glyph-name="asciitilde" unicode="~" horiz-adv-x="469" 
d="M43 243l-12.002 11.999c38.667 38.667 68.834 65.334 90.501 80.001s40.834 22 57.501 22c15.333 0 37.833 -8.5 67.5 -25.5s53.5 -25.5 71.5 -25.5c37.333 0 73.333 17.333 108 52l12 -11c-68.667 -70 -120 -105 -154 -105c-14 0 -36.333 8.5 -67 25.5
s-55.334 25.5 -74.001 25.5c-33.333 0 -66.666 -16.667 -99.999 -50z" />
    <glyph glyph-name="uni0400" unicode="&#x400;" horiz-adv-x="619" 
d="M192 20h312l47 102h16v-122h-548v8l65 16v652l-65 15v9h538v-123h-16l-47 103h-302v-308h244l21 78h15v-177h-15l-21 78h-244v-331zM248 884l139 -141l-11 -11l-184 95z" />
    <glyph glyph-name="afii10023" unicode="&#x401;" horiz-adv-x="619" 
d="M192 20h312l47 102h16v-122h-548v8l65 16v652l-65 15v9h538v-123h-16l-47 103h-302v-308h244l21 78h15v-177h-15l-21 78h-244v-331zM133 823c0 18.667 6.16699 34 18.5 46s27.5 18 45.5 18c18.667 0 34.167 -6 46.5 -18s18.5 -27.333 18.5 -46s-6.16699 -34 -18.5 -46
s-27.833 -18 -46.5 -18c-18 0 -33.167 6 -45.5 18s-18.5 27.333 -18.5 46zM358 823c0 18.667 6 34 18 46s27.333 18 46 18c18 0 33.167 -6 45.5 -18s18.5 -27.333 18.5 -46s-6.16699 -34 -18.5 -46s-27.5 -18 -45.5 -18c-18.667 0 -34 6 -46 18s-18 27.333 -18 46z" />
    <glyph glyph-name="afii10051" unicode="&#x402;" horiz-adv-x="809" 
d="M601 -108l0.00195312 -42.999c40 0 60 66.333 60 199v184c0 104 -38.667 156 -116 156c-26.667 0 -54.334 -5.66699 -83.001 -17s-52.667 -26.333 -72 -45v-297l61 -19v-10h-234v10l65 19v651h-188l-46 -103h-17v123h610v-123h-16l-47 103h-188v-268l-3 -61l3 -3
c28.667 23.333 63.5 41.666 104.5 54.999s79.5 20 115.5 20c54 0 93.833 -15.333 119.5 -46s38.5 -72.667 38.5 -126v-203c0 -71.333 -15.333 -126 -46 -164s-74.334 -57 -131.001 -57c-34 0 -59.167 6.5 -75.5 19.5s-24.5 29.167 -24.5 48.5
c0 16.667 5.16699 30.167 15.5 40.5s23.5 15.5 39.5 15.5s29.167 -5.5 39.5 -16.5s15.5 -25.167 15.5 -42.5z" />
    <glyph glyph-name="afii10052" unicode="&#x403;" horiz-adv-x="573" 
d="M213 743l139 141l56 -57l-184 -95zM192 680v-651l95 -19v-10h-268v10l65 19v647l-65 15v9h515v-123h-17l-46 103h-279z" />
    <glyph glyph-name="afii10053" unicode="&#x404;" horiz-adv-x="704" 
d="M641 107l10.9971 -11c-66.667 -68 -153 -102 -259 -102c-105.333 0 -189.166 32 -251.499 96s-93.5 150.667 -93.5 260c0 108.667 31 195.167 93 259.5s144.667 96.5 248 96.5c86 0 155.333 -20 208 -60l42 25l10 -10v-138h-17
c-6.66699 32.667 -18.5 60.334 -35.5 83.001s-36.667 39.167 -59 49.5s-43.166 17.5 -62.499 21.5s-39.666 6 -60.999 6c-80.667 0 -142.167 -27 -184.5 -81s-65.166 -132.333 -68.499 -235h363v-20h-363c0.666992 -100.667 23.667 -179.334 69 -236.001
s111.666 -85 198.999 -85c88 0 158.667 27 212 81z" />
    <glyph glyph-name="afii10054" unicode="&#x405;" horiz-adv-x="585" 
d="M55 21l0.00195312 142.002h18c7.33301 -30.667 19 -56.834 35 -78.501s34.333 -37.667 55 -48s40.167 -17.5 58.5 -21.5s37.5 -6 57.5 -6c55.333 0 98.666 13.333 129.999 40s47 64 47 112c0 22.667 -3.5 41.667 -10.5 57s-19.333 28.5 -37 39.5
s-34.834 19.5 -51.501 25.5s-42 14 -76 24l-37.5 11.5c-7.66699 2.33301 -19.5 6.16602 -35.5 11.499s-27.833 9.83301 -35.5 13.5l-31 15.5c-13 6.66699 -22.667 13.167 -29 19.5s-13.666 14.166 -21.999 23.499s-14.5 19 -18.5 29s-7.5 21.667 -10.5 35
s-4.5 27.333 -4.5 42c0 58.667 19.333 106.334 58 143.001s96 55 172 55c64 0 120 -15.667 168 -47l42 29l10 -10v-142h-18c-6.66699 30.667 -17.334 56.834 -32.001 78.501s-31.5 37.667 -50.5 48s-36.833 17.666 -53.5 21.999s-33.667 6.5 -51 6.5
c-48.667 0 -87.5 -13 -116.5 -39s-43.5 -60 -43.5 -102c0 -16.667 2.83301 -31.667 8.5 -45s12.167 -24 19.5 -32s19.666 -16 36.999 -24s31.833 -14 43.5 -18s30.167 -10 55.5 -18c30 -9.33301 53.667 -17.166 71 -23.499s37.833 -15.666 61.5 -27.999s42 -25.333 55 -39
s24.167 -31.334 33.5 -53.001s14 -45.834 14 -72.501c0 -60.667 -21 -109.667 -63 -147s-105 -56 -189 -56c-69.333 0 -129.666 15.667 -180.999 47l-43 -30z" />
    <glyph glyph-name="afii10055" unicode="&#x406;" horiz-adv-x="276" 
d="M191 671v-642l62 -19v-10h-233v10l65 19v642l-65 19v10h233v-10z" />
    <glyph glyph-name="afii10056" unicode="&#x407;" horiz-adv-x="276" 
d="M191 671v-642l62 -19v-10h-233v10l65 19v642l-65 19v10h233v-10zM-17 804c0 18 6 33.167 18 45.5s27.333 18.5 46 18.5s34 -6.16699 46 -18.5s18 -27.5 18 -45.5c0 -18.667 -6 -34.167 -18 -46.5s-27.333 -18.5 -46 -18.5s-34 6.16699 -46 18.5s-18 27.833 -18 46.5z
M165 804c0 18 6 33.167 18 45.5s27.333 18.5 46 18.5s34 -6.16699 46 -18.5s18 -27.5 18 -45.5c0 -18.667 -6 -34.167 -18 -46.5s-27.333 -18.5 -46 -18.5s-34 6.16699 -46 18.5s-18 27.833 -18 46.5z" />
    <glyph glyph-name="afii10057" unicode="&#x408;" horiz-adv-x="276" 
d="M85 16v655.001l-65 19v10h232v-10l-61 -19v-655c0 -48.667 -13.167 -90.334 -39.5 -125.001s-65.5 -66.667 -117.5 -96l-11 11c41.333 59.333 62 129.333 62 210z" />
    <glyph glyph-name="afii10058" unicode="&#x409;" horiz-adv-x="1088" 
d="M203 149l56.9971 527l-65 15v9h513v-9l-65 -15v-289h133c78.667 0 142.334 -17.333 191.001 -52s73 -81.667 73 -141c0 -60 -24.167 -107.333 -72.5 -142s-112.166 -52 -191.499 -52h-305v8l65 16v656h-256l-56 -528c-5.33301 -54 -16.5 -93.667 -33.5 -119
s-40.833 -38 -71.5 -38c-23.333 0 -44.166 6.16699 -62.499 18.5s-27.5 31.5 -27.5 57.5c0 19.333 5.5 34.5 16.5 45.5s25.167 16.5 42.5 16.5c18 0 32.5 -5.66699 43.5 -17s16.5 -27 16.5 -47v-34c4 -1.33301 7 -2 9 -2c10 0 19.167 10.333 27.5 31s14.5 49 18.5 85z
M642.997 20l113 -0.000976562c52.667 0 94.834 14.833 126.501 44.5s47.5 72.834 47.5 129.501c0 56 -15.833 98.667 -47.5 128s-73.834 44 -126.501 44h-113v-346z" />
    <glyph glyph-name="afii10059" unicode="&#x40a;" horiz-adv-x="1084" 
d="M19 10l65 19v642l-65 19v10h238v-10l-65 -19v-294h341v294l-65 19v10h237v-10l-65 -19v-294h133c79.333 0 143.166 -16.833 191.499 -50.5s72.5 -79.5 72.5 -137.5s-24.167 -104 -72.5 -138s-112.166 -51 -191.499 -51h-305v8l65 16v332h-341v-327l65 -19v-10h-238v10z
M640 20h112c52.667 0 95 14.5 127 43.5s48 70.833 48 125.5c0 54 -16 95.333 -48 124s-74.333 43 -127 43h-112v-336z" />
    <glyph glyph-name="afii10060" unicode="&#x40b;" horiz-adv-x="852" 
d="M390 326l0.000976562 -296.999l61 -19v-10h-234v10l65 19v651h-188l-46 -103h-17v123h610v-123h-16l-47 103h-188v-268l-3 -61l3 -3c28.667 23.333 63.5 41.666 104.5 54.999s79.5 20 115.5 20c54 0 93.833 -15.333 119.5 -46s38.5 -73 38.5 -127v-221l65 -19v-10h-239
v10l67 19v205c0 102.667 -38.667 154 -116 154c-26.667 0 -54.334 -5.66699 -83.001 -17s-52.667 -26.333 -72 -45z" />
    <glyph glyph-name="afii10061" unicode="&#x40c;" horiz-adv-x="689" 
d="M659 38l8 -8.00098c-23.333 -24 -55.666 -36 -96.999 -36c-38.667 0 -68 11.5 -88 34.5s-35.667 58.833 -47 107.5l-21 94c-9.33301 40.667 -25.166 70.834 -47.499 90.501s-56.5 29.5 -102.5 29.5h-76v-321l65 -19v-10h-238v10l65 19v642l-65 19v10h238v-10l-65 -19
v-302c88 0 143.333 40.667 166 122l20 72c12 46 27.833 81.333 47.5 106s49.167 37 88.5 37c28 0 51 -6.33301 69 -19s27 -31.667 27 -57c0 -19.333 -5.33301 -34.5 -16 -45.5s-25 -16.5 -43 -16.5c-18.667 0 -33.334 5.83301 -44.001 17.5s-16 27.167 -16 46.5v39
c-4.66699 2.66699 -10.334 4 -17.001 4c-30.667 0 -55.667 -37 -75 -111l-19 -73c-16.667 -62 -48.667 -103 -96 -123h19c66.667 0 116.834 -10.167 150.501 -30.5s56.167 -54.5 67.5 -102.5l22 -91c10 -43.333 20.167 -74.333 30.5 -93s25.833 -28 46.5 -28
c13.333 0 27.666 5 42.999 15zM270 742.999l138 141l57 -57l-185 -95z" />
    <glyph glyph-name="uni040D" unicode="&#x40d;" horiz-adv-x="745" 
d="M311 884l139 -141l-11 -11l-184 95zM19 10l65 19v642l-65 19v10h238v-10l-65 -19v-573l361 558v15l-65 19v10h237v-10l-65 -19v-642l65 -19v-10h-237v10l65 19v576l-361 -558v-18l65 -19v-10h-238v10z" />
    <glyph glyph-name="afii10062" unicode="&#x40e;" horiz-adv-x="700" 
d="M421 767l0.00195312 61c0 16.667 5 30 15 40s22.667 15 38 15s27.666 -4.83301 36.999 -14.5s14 -21.834 14 -36.501c0 -29.333 -17.167 -52 -51.5 -68s-71.833 -24 -112.5 -24c-40 0 -77.167 8 -111.5 24s-51.5 38.667 -51.5 68c0 14.667 4.66699 26.834 14 36.501
s21.666 14.5 36.999 14.5s27.833 -5 37.5 -15s14.5 -23.333 14.5 -40v-61c21.333 -8 41.333 -12 60 -12c20 0 40 4 60 12zM331.002 185l-251.999 486l-65 19v10h241v-10l-65 -19l199 -384l207 384l-88 19v10h178v-10l-68 -19l-260 -480
c-38.667 -72 -71.667 -122.833 -99 -152.5s-60.333 -44.5 -99 -44.5c-26 0 -49.667 5.83301 -71 17.5s-32 31.5 -32 59.5c0 19.333 5.66699 34.666 17 45.999s25.666 17 42.999 17s31.5 -5.5 42.5 -16.5s16.5 -25.167 16.5 -42.5v-49c4 -2 8.33301 -3 13 -3
c22.667 0 45.5 14.333 68.5 43s47.5 68.334 73.5 119.001z" />
    <glyph glyph-name="afii10145" unicode="&#x40f;" horiz-adv-x="737" 
d="M336 0h-317v8l65 16v647l-65 19v10h238v-10l-65 -19v-651h354v651l-65 19v10h237v-10l-65 -19v-647l65 -16v-8h-314l-22 -152h-24z" />
    <glyph glyph-name="afii10017" unicode="&#x410;" horiz-adv-x="755" 
d="M402 700l281 -671l64 -19v-10h-241v10l66 19l-84 203h-302l-88 -203l88 -19v-10h-178v10l68 19l293 671h33zM341 590l-146 -337h284z" />
    <glyph glyph-name="afii10018" unicode="&#x411;" horiz-adv-x="644" 
d="M192 680v-283.001h140c79.333 0 143.166 -17.667 191.499 -53s72.5 -83.666 72.5 -144.999s-24.167 -109.833 -72.5 -145.5s-112.166 -53.5 -191.499 -53.5h-313v8l65 16v652l-65 15v9h517v-123h-17l-46 103h-281zM192 19.999h120c52.667 0 94.834 15.333 126.501 46
s47.5 75 47.5 133s-15.833 102.167 -47.5 132.5s-73.834 45.5 -126.501 45.5h-120v-357z" />
    <glyph glyph-name="afii10019" unicode="&#x412;" horiz-adv-x="654" 
d="M19 700l320.001 0.000976562c71.333 0 129.166 -15.5 173.499 -46.5s66.5 -73.5 66.5 -127.5c0 -44 -14.5 -80.333 -43.5 -109s-68.5 -48 -118.5 -58c58.667 -10 105 -30.333 139 -61s51 -69.334 51 -116.001c0 -56 -24.667 -100.333 -74 -133s-114 -49 -194 -49h-320v8
l65 16v652l-65 15v9zM192.001 20.001h127c54 0 97.167 14.167 129.5 42.5s48.5 68.833 48.5 121.5c0 53.333 -16.167 94 -48.5 122s-75.5 42 -129.5 42h-127v-328zM319.001 680.001l-126.998 -0.000976562v-312h127c45.333 0 81.666 13.333 108.999 40s41 65.334 41 116.001
c0 50 -13.833 88.5 -41.5 115.5s-63.834 40.5 -108.501 40.5z" />
    <glyph glyph-name="afii10020" unicode="&#x413;" horiz-adv-x="573" 
d="M192 680v-651l95 -19v-10h-268v10l65 19v647l-65 15v9h515v-123h-17l-46 103h-279z" />
    <glyph glyph-name="afii10021" unicode="&#x414;" horiz-adv-x="713" 
d="M623 0l-533.001 0.000976562l-48 -152h-24v172h79c10.667 4 20.834 17.667 30.501 41s16.5 52.666 20.5 87.999l57 527l-65 15v9h545v-9l-65 -15v-656h75v-172h-24zM229.999 680.001l-56.001 -528c-7.33301 -68 -21.666 -112 -42.999 -132h382v660h-283z" />
    <glyph glyph-name="afii10022" unicode="&#x415;" horiz-adv-x="619" 
d="M192 20h312l47 102h16v-122h-548v8l65 16v652l-65 15v9h538v-123h-16l-47 103h-302v-308h244l21 78h15v-177h-15l-21 78h-244v-331z" />
    <glyph glyph-name="afii10024" unicode="&#x416;" horiz-adv-x="1059" 
d="M192 671v-39.002c0 -19.333 -5.33301 -34.833 -16 -46.5s-25.334 -17.5 -44.001 -17.5c-18 0 -32.333 5.5 -43 16.5s-16 26.167 -16 45.5c0 25.333 9 44.333 27 57s40.667 19 68 19c37.333 0 65.166 -11.833 83.499 -35.5s34.166 -59.5 47.499 -107.5l20 -72
c22.667 -81.333 74.667 -122 156 -122v302l-65 19v10h238v-10l-65 -19v-302c81.333 0 133.333 40.667 156 122l21 72c12.667 48.667 28.334 84.667 47.001 108s46.334 35 83.001 35c26.667 0 49.167 -6.33301 67.5 -19s27.5 -31.667 27.5 -57
c0 -19.333 -5.33301 -34.5 -16 -45.5s-25 -16.5 -43 -16.5c-18.667 0 -33.334 5.83301 -44.001 17.5s-16 27.167 -16 46.5v39c-4.66699 2.66699 -9.66699 4 -15 4c-27.333 0 -51 -37 -71 -111l-20 -73c-18 -62.667 -48 -103.667 -90 -123h20c66 0 115.333 -10.833 148 -32.5
s54.667 -60.167 66 -115.5l15 -76c8 -42 17.333 -72.667 28 -92s25.667 -29 45 -29c14 0 28 5 42 15l8 -8c-22.667 -24 -54 -36 -94 -36c-37.333 0 -66 11.833 -86 35.5s-34.333 59.167 -43 106.5l-14 79c-8.66699 46.667 -23.667 80.834 -45 102.501s-56 32.5 -104 32.5
h-73v-321l65 -19v-10h-238v10l65 19v321h-73c-47.333 0 -81.666 -10.667 -102.999 -32s-36.666 -55.666 -45.999 -102.999l-14 -79c-8.66699 -47.333 -23 -82.833 -43 -106.5s-48.667 -35.5 -86 -35.5c-40 0 -71.333 12 -94 36l8 8c14 -10 28 -15 42 -15
c19.333 0 34.166 9.5 44.499 28.5s19.833 49.833 28.5 92.5l16 76c10.667 54.667 32.334 93 65.001 115s82.334 33 149.001 33h19c-42.667 19.333 -72.334 60.333 -89.001 123l-20 73c-20 74 -44 111 -72 111c-5.33301 0 -10.333 -1.33301 -15 -4z" />
    <glyph glyph-name="afii10025" unicode="&#x417;" 
d="M79 540l-17 -0.00195312v134l10 10l42 -22c46 29.333 106.667 44 182 44c70.667 0 128 -16.167 172 -48.5s66 -76.166 66 -131.499c0 -43.333 -14.167 -79.5 -42.5 -108.5s-67.5 -48.5 -117.5 -58.5c57.333 -9.33301 103 -29.5 137 -60.5s51 -69.833 51 -116.5
c0 -58 -24.333 -103.833 -73 -137.5s-112.667 -50.5 -192 -50.5c-80 0 -144.333 15.333 -193 46l-42 -23l-10 10v135h17c6.66699 -29.333 18 -54.166 34 -74.499s34.5 -35.166 55.5 -44.499s40.5 -15.833 58.5 -19.5s36 -5.5 54 -5.5c55.333 0 99.333 14.167 132 42.5
s49 69.5 49 123.5s-16.833 94.833 -50.5 122.5s-79.5 41.5 -137.5 41.5c-27.333 0 -56 -1 -86 -3v27c26.667 -2.66699 55.334 -4 86.001 -4c49.333 0 88.333 13.167 117 39.5s43 65.166 43 116.499c0 52 -13.833 91.5 -41.5 118.5s-64.834 40.5 -111.501 40.5
c-16 0 -32.167 -1.66699 -48.5 -5s-34.833 -9.5 -55.5 -18.5s-39 -23.833 -55 -44.5s-27 -45.667 -33 -75z" />
    <glyph glyph-name="afii10026" unicode="&#x418;" horiz-adv-x="745" 
d="M19 10l65 19v642l-65 19v10h238v-10l-65 -19v-573l361 558v15l-65 19v10h237v-10l-65 -19v-642l65 -19v-10h-237v10l65 19v576l-361 -558v-18l65 -19v-10h-238v10z" />
    <glyph glyph-name="afii10027" unicode="&#x419;" horiz-adv-x="745" 
d="M432 787v60.001c0 16.667 4.83301 30 14.5 40s22.167 15 37.5 15c16 0 28.667 -4.83301 38 -14.5s14 -21.834 14 -36.501c0 -29.333 -17.333 -52 -52 -68s-72 -24 -112 -24c-24.667 0 -49 3 -73 9s-45.167 16.5 -63.5 31.5s-27.5 32.5 -27.5 52.5
c0 14.667 4.83301 26.667 14.5 36s22.167 14 37.5 14s27.833 -5 37.5 -15s14.5 -23.333 14.5 -40v-60c18.667 -8 38.667 -12 60 -12s41.333 4 60 12zM19 10.001l65 19v642l-65 19v10h238v-10l-65 -19v-573l361 558v15l-65 19v10h237v-10l-65 -19v-642l65 -19v-10h-237v10
l65 19v576l-361 -558v-18l65 -19v-10h-238v10z" />
    <glyph glyph-name="afii10028" unicode="&#x41a;" horiz-adv-x="684" 
d="M659 38l8 -8.00098c-23.333 -24 -55.666 -36 -96.999 -36c-38.667 0 -68 11.5 -88 34.5s-35.667 58.833 -47 107.5l-21 94c-9.33301 40.667 -25.166 70.834 -47.499 90.501s-56.5 29.5 -102.5 29.5h-76v-321l65 -19v-10h-238v10l65 19v642l-65 19v10h238v-10l-65 -19
v-302c88 0 143.333 40.667 166 122l20 72c12 46 27.833 81.333 47.5 106s49.167 37 88.5 37c28 0 51 -6.33301 69 -19s27 -31.667 27 -57c0 -19.333 -5.33301 -34.5 -16 -45.5s-25 -16.5 -43 -16.5c-18.667 0 -33.334 5.83301 -44.001 17.5s-16 27.167 -16 46.5v39
c-4.66699 2.66699 -10.334 4 -17.001 4c-30.667 0 -55.667 -37 -75 -111l-19 -73c-16.667 -62 -48.667 -103 -96 -123h19c66.667 0 116.834 -10.167 150.501 -30.5s56.167 -54.5 67.5 -102.5l22 -91c10 -43.333 20.167 -74.333 30.5 -93s25.833 -28 46.5 -28
c13.333 0 27.666 5 42.999 15z" />
    <glyph glyph-name="afii10029" unicode="&#x41b;" horiz-adv-x="743" 
d="M203 149l57 527l-65 15v9h528v-9l-65 -15v-647l65 -19v-10h-237v10l65 19v651h-266l-56 -528c-10.667 -104.667 -47.334 -157 -110.001 -157c-23.333 0 -44.166 6.16699 -62.499 18.5s-27.5 31.5 -27.5 57.5c0 19.333 5.5 34.5 16.5 45.5s25.167 16.5 42.5 16.5
c18 0 32.5 -5.66699 43.5 -17s16.5 -27 16.5 -47v-34c4 -1.33301 7 -2 9 -2c10 0 19.167 10.333 27.5 31s14.5 49 18.5 85z" />
    <glyph glyph-name="afii10030" unicode="&#x41c;" horiz-adv-x="920" 
d="M797 671l46 -642l62 -19v-10h-234v10l65 19l-42 579l-257 -608h-33l-261 609l-43 -582l61 -19v-8h-147v8l65 19l47 644l-65 19v10h153l250 -590l248 590h147v-10z" />
    <glyph glyph-name="afii10031" unicode="&#x41d;" horiz-adv-x="745" 
d="M19 10l65 19v642l-65 19v10h238v-10l-65 -19v-304h362v304l-65 19v10h237v-10l-65 -19v-642l65 -19v-10h-237v10l65 19v317h-362v-317l65 -19v-10h-238v10z" />
    <glyph glyph-name="afii10032" unicode="&#x41e;" horiz-adv-x="769" 
d="M48 350c0 108 31 194.333 93 259s143.333 97 244 97c100 0 181.167 -32.333 243.5 -97s93.5 -151 93.5 -259c0 -108.667 -31.167 -195.167 -93.5 -259.5s-143.5 -96.5 -243.5 -96.5c-100.667 0 -182 32.167 -244 96.5s-93 150.833 -93 259.5zM161 349
c0 -109.333 20.5 -193.333 61.5 -252s95.167 -88 162.5 -88s121.333 29.333 162 88s61 142.667 61 252c0 110 -20.333 194.5 -61 253.5s-94.667 88.5 -162 88.5s-121.5 -29.5 -162.5 -88.5s-61.5 -143.5 -61.5 -253.5z" />
    <glyph glyph-name="afii10033" unicode="&#x41f;" horiz-adv-x="737" 
d="M19 10l65 19v647l-65 15v9h699v-9l-65 -15v-647l65 -19v-10h-237v10l65 19v651h-354v-651l65 -19v-10h-238v10z" />
    <glyph glyph-name="afii10034" unicode="&#x420;" horiz-adv-x="626" 
d="M288 680h-96v-651l100 -19v-10h-273v10l65 19v647l-65 15v9h282c80 0 144.667 -18 194 -54s74 -84.667 74 -146s-24.667 -110 -74 -146s-114 -54 -194 -54h-81l-13 13v7h81c52 0 93.5 15.5 124.5 46.5s46.5 75.5 46.5 133.5s-15.5 102.5 -46.5 133.5
s-72.5 46.5 -124.5 46.5z" />
    <glyph glyph-name="afii10035" unicode="&#x421;" horiz-adv-x="704" 
d="M641 107l11 -12.001c-66 -67.333 -152.333 -101 -259 -101c-105.333 0 -189.166 32 -251.499 96s-93.5 150.667 -93.5 260c0 108.667 31 195.167 93 259.5s144.667 96.5 248 96.5c86 0 155.333 -20 208 -60l42 25l10 -10v-138h-17c-6.66699 32.667 -19 60.334 -37 83.001
s-38.667 39.167 -62 49.5s-44.833 17.5 -64.5 21.5s-39.5 6 -59.5 6c-78 0 -138.833 -28.167 -182.5 -84.5s-65.5 -137.833 -65.5 -244.5c0 -102 22.667 -182.167 68 -240.5s112.333 -87.5 201 -87.5c87.333 0 157.666 27 210.999 81z" />
    <glyph glyph-name="afii10036" unicode="&#x422;" horiz-adv-x="672" 
d="M584 680h-187v-651l65 -19v-10h-238v10l65 19v651h-186l-47 -103h-16v123h607v-123h-17z" />
    <glyph glyph-name="afii10037" unicode="&#x423;" horiz-adv-x="700" 
d="M331 185l-251.999 486l-65 19v10h241v-10l-65 -19l199 -384l207 384l-88 19v10h178v-10l-68 -19l-260 -480c-38.667 -72 -71.667 -122.833 -99 -152.5s-60.333 -44.5 -99 -44.5c-26 0 -49.667 5.83301 -71 17.5s-32 31.5 -32 59.5c0 19.333 5.66699 34.666 17 45.999
s25.666 17 42.999 17s31.5 -5.5 42.5 -16.5s16.5 -25.167 16.5 -42.5v-49c4 -2 8.33301 -3 13 -3c22.667 0 45.5 14.333 68.5 43s47.5 68.334 73.5 119.001z" />
    <glyph glyph-name="afii10038" unicode="&#x424;" horiz-adv-x="873" 
d="M490 671v-49c102 0 183.5 -24.333 244.5 -73s91.5 -115 91.5 -199c0 -84.667 -30.5 -151.334 -91.5 -200.001s-142.5 -73 -244.5 -73v-48l62 -19v-10h-234v10l65 19v48c-102 0 -183.333 24.333 -244 73s-91 115.334 -91 200.001c0 84 30.333 150.333 91 199
s142 73 244 73v49l-65 19v10h234v-10zM383 92v515c-68.667 0 -122.834 -22 -162.501 -66s-59.5 -108 -59.5 -192c0 -83.333 19.833 -147 59.5 -191s93.834 -66 162.501 -66zM490 607v-515c68.667 0 122.834 22 162.501 66s59.5 107.667 59.5 191c0 84 -19.833 148 -59.5 192
s-93.834 66 -162.501 66z" />
    <glyph glyph-name="afii10039" unicode="&#x425;" horiz-adv-x="742" 
d="M553 29l-218 302l-224 -302l84 -19v-10h-179v10l71 19l235 317l-233 325l-61 19v10h238v-10l-65 -19l199 -280l199 280l-85 19v10h179v-10l-70 -19l-210 -296l251 -346l62 -19v-10h-239v10z" />
    <glyph glyph-name="afii10040" unicode="&#x426;" horiz-adv-x="742" 
d="M647 0h-628v8l65 16v647l-65 19v10h238v-10l-65 -19v-651h349v651l-65 19v10h237v-10l-65 -19v-651h75v-172h-24z" />
    <glyph glyph-name="afii10041" unicode="&#x427;" horiz-adv-x="700" 
d="M192 671l0.00195312 -178.001c0 -55.333 10.833 -97.666 32.5 -126.999s57.5 -44 107.5 -44c27.333 0 57.666 3.83301 90.999 11.5s61.666 18.5 84.999 32.5v305l-65 19v10h238v-10l-65 -19v-642l65 -19v-10h-238v10l65 19v317c-29.333 -18 -64.5 -31.833 -105.5 -41.5
s-79.833 -14.5 -116.5 -14.5c-68 0 -118.667 16.5 -152 49.5s-50 79.5 -50 139.5v192l-65 19v10h238v-10z" />
    <glyph glyph-name="afii10042" unicode="&#x428;" horiz-adv-x="1086" 
d="M19 8l65 16v647l-65 19v10h238v-10l-65 -19v-651h297v651l-65 19v10h238v-10l-65 -19v-651h297v651l-65 19v10h238v-10l-65 -19v-647l65 -16v-8h-1048v8z" />
    <glyph glyph-name="afii10043" unicode="&#x429;" horiz-adv-x="1096" 
d="M1001 0h-982v8l65 16v647l-65 19v10h238v-10l-65 -19v-651h297v651l-65 19v10h238v-10l-65 -19v-651h297v651l-65 19v10h238v-10l-65 -19v-651h74v-172h-23z" />
    <glyph glyph-name="afii10044" unicode="&#x42a;" horiz-adv-x="810" 
d="M366 676l-0.00195312 -289h132c78.667 0 142.334 -17.333 191.001 -52s73 -81.667 73 -141c0 -60 -24.167 -107.333 -72.5 -142s-112.166 -52 -191.499 -52h-305v8l65 16v656h-157l-46 -103h-17v123h393v-9zM365.998 20l112 -0.000976562
c52.667 0 94.834 14.833 126.501 44.5s47.5 72.834 47.5 129.501c0 56 -15.833 98.667 -47.5 128s-73.834 44 -126.501 44h-112v-346z" />
    <glyph glyph-name="afii10045" unicode="&#x42b;" horiz-adv-x="886" 
d="M192 671v-284h133c78.667 0 142.334 -17.333 191.001 -52s73 -81.667 73 -141s-24.333 -106.5 -73 -141.5s-112.334 -52.5 -191.001 -52.5h-306v8l65 16v647l-65 19v10h238v-10zM192 20h112c52.667 0 95 15 127 45s48 73 48 129s-16 98.667 -48 128s-74.333 44 -127 44
h-112v-346zM801 671v-642l62 -19v-10h-234v10l65 19v642l-65 19v10h234v-10z" />
    <glyph glyph-name="afii10046" unicode="&#x42c;" horiz-adv-x="636" 
d="M192 671v-284h133c78.667 0 142.334 -17.333 191.001 -52s73 -81.667 73 -141s-24.333 -106.5 -73 -141.5s-112.334 -52.5 -191.001 -52.5h-306v8l65 16v647l-65 19v10h238v-10zM192 20h112c52.667 0 95 15 127 45s48 73 48 129s-16 98.667 -48 128s-74.333 44 -127 44
h-112v-346z" />
    <glyph glyph-name="afii10047" unicode="&#x42d;" horiz-adv-x="704" 
d="M547 347h-362.998v20h363c-2.66699 101.333 -25 179.333 -67 234s-103.333 82 -184 82c-20 0 -39.667 -1.83301 -59 -5.5s-40.666 -10.667 -63.999 -21s-43.666 -26.833 -60.999 -49.5s-29.333 -50.667 -36 -84h-17v138l10 10l42 -25c53.333 40 122.666 60 207.999 60
c103.333 0 186.166 -32.167 248.499 -96.5s93.5 -150.833 93.5 -259.5s-31.333 -195.167 -94 -259.5s-146 -96.5 -250 -96.5c-88.667 0 -159.334 20 -212.001 60l-42 -25l-10 10v137h17c7.33301 -32.667 19.666 -60.167 36.999 -82.5s37.666 -38.5 60.999 -48.5
s44.833 -17 64.5 -21s39.834 -6 60.501 -6c82.667 0 145.667 27.5 189 82.5s65 137.167 65 246.5z" />
    <glyph glyph-name="afii10048" unicode="&#x42e;" horiz-adv-x="1002" 
d="M19 10l64.9971 19.001v642l-65 19v10h238v-10l-65 -19v-304h138c2.66699 103.333 32.834 185.666 90.501 246.999s131.5 92 221.5 92c92.667 0 167.834 -32.333 225.501 -97s86.5 -151 86.5 -259c0 -108.667 -28.667 -195.167 -86 -259.5s-132.666 -96.5 -225.999 -96.5
c-92.667 0 -167.667 31.833 -225 95.5s-86.333 149.167 -87 256.5h-138v-317l65 -19v-10h-238v10zM442.997 349.001c0 -109.333 18.167 -193.333 54.5 -252s84.5 -88 144.5 -88s108.167 29.333 144.5 88s54.5 142.667 54.5 252c0 110 -18.167 194.5 -54.5 253.5
s-84.5 88.5 -144.5 88.5s-108.167 -29.5 -144.5 -88.5s-54.5 -143.5 -54.5 -253.5z" />
    <glyph glyph-name="afii10049" unicode="&#x42f;" horiz-adv-x="659" 
d="M16 30l8.00098 8.00293c14 -10 28 -15 42 -15c18 0 32 8.66699 42 26s20 46 30 86l17 72c9.33301 39.333 24.166 69.666 44.499 90.999s48.5 36 84.5 44c-61.333 7.33301 -109.333 26.666 -144 57.999s-52 71.333 -52 120c0 56 22.833 100 68.5 132s106.167 48 181.5 48
h302v-9l-65 -15v-647l65 -19v-10h-243v10l71 19v305h-65c-44.667 0 -77.5 -10.667 -98.5 -32s-36.5 -54.333 -46.5 -99l-17 -74c-10 -44.667 -25.167 -78.334 -45.5 -101.001s-48.833 -34 -85.5 -34c-40 0 -71.333 12 -94 36zM468.001 680.003h-117.001
c-46 0 -83 -13.833 -111 -41.5s-42 -68.167 -42 -121.5s13.833 -93.833 41.5 -121.5s64.834 -41.5 111.501 -41.5h117v326z" />
    <glyph glyph-name="afii10065" unicode="&#x430;" horiz-adv-x="546" 
d="M366 60l-3.00195 3.00098c-49.333 -46 -109 -69 -179 -69c-45.333 0 -79.166 10.333 -101.499 31s-33.5 49 -33.5 85c0 36.667 14.167 66 42.5 88s58.833 36.833 91.5 44.5s89 18.167 169 31.5c4.66699 0.666992 8.33398 1.33398 11.001 2.00098v94
c0 35.333 -9.16699 63.666 -27.5 84.999s-43.833 32 -76.5 32c-26 0 -50.667 -7.66699 -74 -23v-81c0 -20 -5.66699 -36 -17 -48s-26 -18 -44 -18c-17.333 0 -31.666 5.5 -42.999 16.5s-17 26.5 -17 46.5c0 37.333 19.5 67.166 58.5 89.499s85.167 33.5 138.5 33.5
c64.667 0 115.167 -14.167 151.5 -42.5s54.5 -64.833 54.5 -109.5v-305c0 -16.667 8 -25 24 -25c14.667 0 25.667 3.66699 33 11l7 -7c-18 -18 -48.333 -27 -91 -27c-44.667 0 -69.334 20.667 -74.001 62zM362.998 86.001v175c-79.333 -12.667 -130 -24 -152 -34
c-35.333 -16.667 -54 -47.667 -56 -93v-11c0 -30.667 7.33301 -54 22 -70s35 -24 61 -24c47.333 0 89 19 125 57z" />
    <glyph glyph-name="afii10066" unicode="&#x431;" horiz-adv-x="595" 
d="M107 403l4.00098 -0.00195312c16 30 41.5 54.333 76.5 73s74.833 28 119.5 28c74 0 133.833 -23.333 179.5 -70s68.5 -109 68.5 -187c0 -77.333 -22.833 -138.666 -68.5 -183.999s-107.167 -68 -184.5 -68c-166 0 -249 111.333 -249 334c0 64 6.83301 119.167 20.5 165.5
s32 81.666 55 105.999s48.333 43.833 76 58.5s56.667 24.334 87 29.001s58.666 8 84.999 10s50.666 5 72.999 9s38.166 10.667 47.499 20l13 -14c-13.333 -26 -31 -46.333 -53 -61s-45 -24 -69 -28s-49.167 -7 -75.5 -9s-51.166 -5.66699 -74.499 -11
s-44.666 -14.166 -63.999 -26.499s-35 -33 -47 -62s-18.667 -66.5 -20 -112.5zM164.001 248.998c0 -76.667 13 -135.665 39 -176.998s60.667 -62 104 -62s77.833 20.667 103.5 62s38.5 100.333 38.5 177c0 77.333 -12.833 136.666 -38.5 177.999s-60.167 62 -103.5 62
s-78 -20.833 -104 -62.5s-39 -100.834 -39 -177.501z" />
    <glyph glyph-name="afii10067" unicode="&#x432;" horiz-adv-x="543" 
d="M19 500l297.999 -0.000976562c50 0 90.333 -11 121 -33s46 -52 46 -90c0 -31.333 -10.667 -57.5 -32 -78.5s-50.333 -34.833 -87 -41.5c44.667 -6 79.834 -20.167 105.501 -42.5s38.5 -50.166 38.5 -83.499c0 -40.667 -17.5 -72.667 -52.5 -96s-81.5 -35 -139.5 -35h-298
v8l60 16v452l-60 15v9zM284.999 247.999h-102v-230h102c36 0 64.5 9.83301 85.5 29.5s31.5 48.167 31.5 85.5s-10.5 65.833 -31.5 85.5s-49.5 29.5 -85.5 29.5zM182.999 266.999h102c28.667 0 51.334 9.16699 68.001 27.5s25 44.833 25 79.5s-8.33301 61.167 -25 79.5
s-39.334 27.5 -68.001 27.5h-102v-214z" />
    <glyph glyph-name="afii10068" unicode="&#x433;" horiz-adv-x="460" 
d="M379 480h-196v-451l90 -19v-10h-254v10l60 19v447l-60 15v9h408v-109h-16z" />
    <glyph glyph-name="afii10069" unicode="&#x434;" horiz-adv-x="582" 
d="M496 0h-409.999l-41 -134h-22v154h61c13.333 4 25.166 17.5 35.499 40.5s17.5 52.5 21.5 88.5l41 327l-60 15v9h431v-9l-60 -15v-456h67v-154h-22zM201.001 480l-38 -328c-8 -68 -24 -112 -48 -132h274v460h-188z" />
    <glyph glyph-name="afii10070" unicode="&#x435;" horiz-adv-x="558" 
d="M495 250l-349 -0.000976562c0 -71.333 16.333 -126.5 49 -165.5s81 -58.5 145 -58.5c58.667 0 107.667 19.667 147 59l11 -12c-52 -52 -119 -78 -201 -78c-84 0 -148 23 -192 69s-66 106 -66 180c0 78.667 23.5 141.667 70.5 189s107.167 71 180.5 71
c65.333 0 119 -18.667 161 -56s63 -85.666 63 -144.999c0 -16 -1.66699 -29.333 -5 -40zM294 488.999c-39.333 0 -73.333 -19.167 -102 -57.5s-44 -93.833 -46 -166.5l266 15c0 68.667 -10.333 120.667 -31 156s-49.667 53 -87 53z" />
    <glyph glyph-name="afii10072" unicode="&#x436;" horiz-adv-x="837" 
d="M678 428l0.00195312 43.001c-2 1.33301 -5.66699 2 -11 2c-24 0 -41.667 -24 -53 -72l-12 -53c-9.33301 -40 -30 -68 -62 -84h20c51.333 0 89.666 -8.33301 114.999 -25s42.333 -44.667 51 -84l12 -52c6.66699 -30 13.167 -51.333 19.5 -64s15.5 -19 27.5 -19
c10.667 0 20.334 3.66699 29.001 11l7 -7c-18 -19.333 -46.667 -29 -86 -29c-30 0 -51.333 8.16699 -64 24.5s-23.334 42.5 -32.001 78.5l-13 61c-8 32 -19.5 55 -34.5 69s-39.167 21 -72.5 21h-48v-220l56 -19v-10h-220v10l60 19v220h-48c-33.333 0 -57.666 -7 -72.999 -21
s-26.666 -37 -33.999 -69l-14 -61c-8 -36 -18.333 -62.167 -31 -78.5s-34.334 -24.5 -65.001 -24.5c-39.333 0 -68 9.66699 -86 29l7 7c10 -7.33301 19.667 -11 29 -11c12 0 21.333 6.33301 28 19s13.334 34 20.001 64l11 52c9.33301 39.333 26.5 67.333 51.5 84
s63.5 25 115.5 25h19c-32 16 -52.667 44 -62 84l-12 53c-11.333 48 -29 72 -53 72c-4.66699 0 -8.33398 -0.666992 -11.001 -2v-43c0 -16.667 -5 -30 -15 -40s-23.333 -15 -40 -15c-35.333 0 -53 19 -53 57c0 25.333 8.5 44.166 25.5 56.499s37.833 18.5 62.5 18.5
c55.333 0 90.666 -35 105.999 -105l12 -52c14 -55.333 50.667 -83 110 -83v206l-60 19v10h224v-10l-60 -19v-206c59.333 0 96 27.667 110 83l12 52c15.333 70 50.666 105 105.999 105c24 0 44.5 -6.16699 61.5 -18.5s25.5 -31.166 25.5 -56.499
c0 -18.667 -4.66699 -32.834 -14 -42.501s-22 -14.5 -38 -14.5c-17.333 0 -31 5 -41 15s-15 23.333 -15 40z" />
    <glyph glyph-name="afii10073" unicode="&#x437;" horiz-adv-x="499" 
d="M166 247l-0.00390625 24.001c24.667 -2 46.334 -3 65.001 -3c71.333 0 107 35.667 107 107c0 37.333 -8.83301 65.5 -26.5 84.5s-42.5 28.5 -74.5 28.5c-31.333 0 -61.666 -9.83301 -90.999 -29.5s-47.666 -52.834 -54.999 -99.501h-21v123l10 10l22 -18
c44 20 95 30 153 30c58.667 0 105 -11.333 139 -34s51 -53 51 -91c0 -30.667 -11 -56.667 -33 -78s-52.333 -35.333 -91 -42c44.667 -6 79.834 -20.167 105.501 -42.5s38.5 -50.833 38.5 -85.5c0 -42 -19.167 -75.167 -57.5 -99.5s-91.5 -36.5 -159.5 -36.5
c-54.667 0 -102.167 9.16699 -142.5 27.5s-60.5 43.833 -60.5 76.5c0 16 5 29 15 39s22.667 15 38 15c16 0 29.167 -5.66699 39.5 -17s15.5 -27 15.5 -47v-58c27.333 -13.333 56 -20 86 -20c37.333 0 66.5 10.5 87.5 31.5s31.5 51.5 31.5 91.5
c0 77.333 -41.667 116 -125 116c-20 0 -42.333 -1 -67 -3z" />
    <glyph glyph-name="afii10074" unicode="&#x438;" 
d="M19 10l60 19v442l-60 19v10h217v-10l-53 -19v-299l-3 -77l3 -3l244 361v18l-53 19v10h217v-10l-60 -19v-442l60 -19v-10h-217v10l53 19v299l3 77l-3 3l-244 -361v-18l53 -19v-10h-217v10z" />
    <glyph glyph-name="afii10075" unicode="&#x439;" 
d="M365 587l0.000976562 60.001c0 16.667 4.83301 30 14.5 40s22.5 15 38.5 15c15.333 0 27.666 -4.83301 36.999 -14.5s14 -21.834 14 -36.501c0 -29.333 -17.167 -52 -51.5 -68s-71.833 -24 -112.5 -24c-24.667 0 -49 3 -73 9s-45.167 16.5 -63.5 31.5
s-27.5 32.5 -27.5 52.5c0 14.667 4.83301 26.667 14.5 36s22.167 14 37.5 14s27.833 -5 37.5 -15s14.5 -23.333 14.5 -40v-60c18.667 -8 38.667 -12 60 -12s41.333 4 60 12zM19.001 10.001l60 19v442l-60 19v10h217v-10l-53 -19v-299l-3 -77l3 -3l244 361v18l-53 19v10h217
v-10l-60 -19v-442l60 -19v-10h-217v10l53 19v299l3 77l-3 3l-244 -361v-18l53 -19v-10h-217v10z" />
    <glyph glyph-name="afii10076" unicode="&#x43a;" horiz-adv-x="567" 
d="M401 429l-0.000976562 43.001c-2.66699 2 -6.33398 3 -11.001 3c-26 0 -44.667 -24.667 -56 -74l-12 -53c-9.33301 -40.667 -31 -68.667 -65 -84h18c54.667 0 95 -8.33301 121 -25s43.667 -44.667 53 -84l12 -52c7.33301 -30 14.333 -51.333 21 -64
s16.334 -19 29.001 -19c10 0 20 3.66699 30 11l8 -7c-19.333 -19.333 -48.666 -29 -87.999 -29c-31.333 0 -53.666 8.16699 -66.999 24.5s-24.666 42.5 -33.999 78.5l-14 61c-8 32 -20 55 -36 69s-41.333 21 -76 21h-51v-220l57 -19v-10h-221v10l60 19v442l-60 19v10h224
v-10l-60 -19v-206c31.333 0 57.166 7.5 77.499 22.5s33.5 35.167 39.5 60.5l11 52c14.667 70 51 105 109 105c25.333 0 46.666 -6 63.999 -18s26 -30.667 26 -56c0 -18.667 -4.83301 -32.834 -14.5 -42.501s-22.5 -14.5 -38.5 -14.5c-16.667 0 -30.167 5 -40.5 15
s-15.5 23.333 -15.5 40z" />
    <glyph glyph-name="afii10077" unicode="&#x43b;" horiz-adv-x="582" 
d="M177 149l35.001 327l-60 15v9h410v-9l-60 -15v-447l60 -19v-10h-216v10l53 19v451h-167l-34 -328c-10.667 -104.667 -44.667 -157 -102 -157c-21.333 0 -40 5.83301 -56 17.5s-24 29.834 -24 54.501c0 18 4.66699 31.833 14 41.5s21.666 14.5 36.999 14.5
c16.667 0 30 -4.83301 40 -14.5s15 -22.834 15 -39.501v-34c4 -1.33301 7 -2 9 -2c10 0 19.167 10.333 27.5 31s14.5 49 18.5 85z" />
    <glyph glyph-name="afii10078" unicode="&#x43c;" horiz-adv-x="718" 
d="M624 471l21 -442l60 -19v-10h-224v10l60 19l-20 397l-188 -426h-29l-192 428l-21 -401l60 -19v-8h-138v8l60 19l22 444l-60 19v10h153l172 -390l173 390h151v-10z" />
    <glyph glyph-name="afii10079" unicode="&#x43d;" horiz-adv-x="609" 
d="M19 10l60 19v442l-60 19v10h216v-10l-52 -19v-204h243v204l-52 19v10h216v-10l-60 -19v-442l60 -19v-10h-216v10l52 19v217h-243v-217l52 -19v-10h-216v10z" />
    <glyph glyph-name="afii10080" unicode="&#x43e;" horiz-adv-x="583" 
d="M39 249c0 77.333 23.3311 139.168 69.998 185.501s107.667 69.5 183 69.5c74.667 0 135.334 -23.333 182.001 -70s70 -108.334 70 -185.001c0 -77.333 -23.167 -139 -69.5 -185s-107.166 -69 -182.499 -69s-136.333 23 -183 69s-70 107.667 -70 185zM145.998 249.002
c0 -76.667 13.333 -135.667 40 -177s62 -62 106 -62c44.667 0 80.167 20.667 106.5 62s39.5 100.333 39.5 177c0 77.333 -13.167 136.666 -39.5 177.999s-61.833 62 -106.5 62c-44 0 -79.333 -20.667 -106 -62s-40 -100.666 -40 -177.999z" />
    <glyph glyph-name="afii10081" unicode="&#x43f;" horiz-adv-x="609" 
d="M19 10l60 19v447l-60 15v9h571v-9l-60 -15v-447l60 -19v-10h-216v10l52 19v451h-243v-451l52 -19v-10h-216v10z" />
    <glyph glyph-name="afii10082" unicode="&#x440;" horiz-adv-x="582" 
d="M19 -200l0.000976562 10l60 19v638l-60 13v11l151 16l13 -14l-3 -55l3 -3c44 46 98.667 69 164 69c64.667 0 113.5 -22 146.5 -66s49.5 -103 49.5 -177c0 -84.667 -21.333 -150.167 -64 -196.5s-102.334 -69.5 -179.001 -69.5c-44.667 0 -83.667 9 -117 27v-193l90 -19
v-10h-254zM183.001 413v-376c34 -18 66.667 -27 98 -27c50 0 88.5 20.5 115.5 61.5s40.5 98.833 40.5 173.5c0 67.333 -12.667 121.5 -38 162.5s-59.333 61.5 -102 61.5c-44.667 0 -82.667 -18.667 -114 -56z" />
    <glyph glyph-name="afii10083" unicode="&#x441;" horiz-adv-x="555" 
d="M380 377l0.000976562 86c-28 17.333 -56.333 26 -85 26c-46.667 0 -83.167 -20.167 -109.5 -60.5s-39.5 -94.833 -39.5 -163.5c0 -76 15.667 -135 47 -177s77.666 -63 138.999 -63c58 0 107 20 147 60l11 -12c-52 -52 -118.333 -78 -199 -78
c-82 0 -144.5 22.833 -187.5 68.5s-64.5 107.167 -64.5 184.5c0 79.333 22 141.833 66 187.5s106.667 68.5 188 68.5c56.667 0 106 -11.5 148 -34.5s63 -54.5 63 -94.5c0 -20.667 -5.66699 -36.5 -17 -47.5s-26.333 -16.5 -45 -16.5s-33.667 6 -45 18s-17 28 -17 48z" />
    <glyph glyph-name="afii10084" unicode="&#x442;" horiz-adv-x="539" 
d="M458 480h-137v-451l60 -19v-10h-224v10l60 19v451h-137l-31 -89h-16v109h473v-109h-17z" />
    <glyph glyph-name="afii10085" unicode="&#x443;" horiz-adv-x="601" 
d="M288 -9l-217.999 480l-59 19v10h228v-10l-61 -19l164 -363l162 363l-83 19v10h169v-10l-64 -19l-212 -471c-33.333 -73.333 -61.833 -125.333 -85.5 -156s-51.5 -46 -83.5 -46c-22 0 -42.167 5.83301 -60.5 17.5s-27.5 30.167 -27.5 55.5
c0 17.333 4.66699 30.833 14 40.5s21.666 14.5 36.999 14.5c16 0 29 -5 39 -15s15 -23.333 15 -40v-40c4 -2 7.66699 -3 11 -3c18 0 35.833 13.833 53.5 41.5s38.167 68.167 61.5 121.5z" />
    <glyph glyph-name="afii10086" unicode="&#x444;" horiz-adv-x="815" 
d="M460 464c32 27.333 74.332 41 126.999 41c64 0 111.5 -21.833 142.5 -65.5s46.5 -102.5 46.5 -176.5c0 -85.333 -19.667 -150.833 -59 -196.5s-94.666 -68.5 -165.999 -68.5c-30 0 -60.333 6 -91 18v-187l60 -19v-10h-224v10l60 19v169l3 30l-3 3
c-30.667 -24.667 -73 -37 -127 -37c-64 0 -111.667 21.833 -143 65.5s-47 102.5 -47 176.5c0 85.333 19.833 151 59.5 197s95.5 69 167.5 69c30 0 60 -6 90 -18v203l-60 13v11l150 16l14 -14v-211l-3 -35zM275.999 20c30.667 0 57.334 10.001 80.001 30.001v419
c-24.667 11.333 -48.334 17 -71.001 17c-44.667 0 -79 -20.333 -103 -61s-36 -99.334 -36 -176.001c0 -70.667 11.5 -126.5 34.5 -167.5s54.833 -61.5 95.5 -61.5zM540.999 476.001c-31.333 0 -58.334 -10 -81.001 -30v-415c26 -11.333 49.667 -17 71 -17
c44.667 0 78.834 20.167 102.501 60.5s35.5 99.166 35.5 176.499c0 70.667 -11.333 125.834 -34 165.501s-54 59.5 -94 59.5z" />
    <glyph glyph-name="afii10087" unicode="&#x445;" horiz-adv-x="585" 
d="M405 29l-148 198l-152 -198l80 -19v-10h-169v10l66 19l162 214l-166 228l-57 19v10h225v-10l-60 -19l137 -186l142 186l-80 19v10h169v-10l-65 -19l-153 -202l177 -240l57 -19v-10h-226v10z" />
    <glyph glyph-name="afii10088" unicode="&#x446;" horiz-adv-x="616" 
d="M530 0h-511v8l60 16v447l-60 19v10h216v-10l-52 -19v-451h240v451l-53 19v10h217v-10l-60 -19v-451h66v-154h-22z" />
    <glyph glyph-name="afii10089" unicode="&#x447;" horiz-adv-x="587" 
d="M183 471v-107c0 -91.333 31.667 -137 95 -137c50 0 92 14.667 126 44v200l-52 19v10h216v-10l-60 -19v-442l60 -19v-10h-224v10l60 19v222c-46 -37.333 -103.667 -56 -173 -56c-50 0 -87.833 13.667 -113.5 41s-38.5 65 -38.5 113v122l-60 19v10h216v-10z" />
    <glyph glyph-name="afii10090" unicode="&#x448;" horiz-adv-x="864" 
d="M380 471l-50 19v10h205v-10l-51 -19v-451h197v451l-51 19v10h215v-10l-60 -19v-447l60 -16v-8h-826v8l60 16v447l-60 19v10h215v-10l-51 -19v-451h197v451z" />
    <glyph glyph-name="afii10091" unicode="&#x449;" horiz-adv-x="874" 
d="M788 0h-769v8l60 16v447l-60 19v10h215v-10l-51 -19v-451h197v451l-50 19v10h205v-10l-51 -19v-451h197v451l-51 19v10h215v-10l-60 -19v-451h66v-154h-22z" />
    <glyph glyph-name="afii10092" unicode="&#x44a;" horiz-adv-x="645" 
d="M366 500v-10l-60 -19v-186h111c57.333 0 103.833 -13 139.5 -39s53.5 -60.667 53.5 -104s-17.667 -77.833 -53 -103.5s-82 -38.5 -140 -38.5h-275v8l60 16v456h-122l-31 -89h-16v109h333zM385 266h-79v-248h79c36.667 0 65.667 10.667 87 32s32 52 32 92
s-10.667 70.667 -32 92s-50.333 32 -87 32z" />
    <glyph glyph-name="afii10093" unicode="&#x44b;" horiz-adv-x="752" 
d="M294 0h-275v8l60 16v447l-60 19v10h224v-10l-60 -19v-186h111c57.333 0 104 -13 140 -39s54 -60.667 54 -104s-17.833 -77.833 -53.5 -103.5s-82.5 -38.5 -140.5 -38.5zM263 266h-80v-248h80c36 0 64.667 10.667 86 32s32 52 32 92s-10.667 70.667 -32 92s-50 32 -86 32z
M672 471v-442l60 -19v-10h-224v10l60 19v442l-60 19v10h224v-10z" />
    <glyph glyph-name="afii10094" unicode="&#x44c;" horiz-adv-x="522" 
d="M294 0h-275v8l60 16v447l-60 19v10h224v-10l-60 -19v-186h111c57.333 0 104 -13 140 -39s54 -60.667 54 -104s-17.833 -77.833 -53.5 -103.5s-82.5 -38.5 -140.5 -38.5zM263 266h-80v-248h80c36 0 64.667 10.667 86 32s32 52 32 92s-10.667 70.667 -32 92s-50 32 -86 32z
" />
    <glyph glyph-name="afii10095" unicode="&#x44d;" horiz-adv-x="538" 
d="M180 247l-0.000976562 20.001h213c-2 70 -17.5 124.333 -46.5 163s-68.167 58 -117.5 58c-32.667 0 -62.667 -9.83301 -90 -29.5s-44.666 -52.834 -51.999 -99.501h-21v123l10 10l22 -18c38.667 20 83.667 30 135 30c86 0 151.833 -23.333 197.5 -70s68.5 -109 68.5 -187
s-22.333 -139.5 -67 -184.5s-109 -67.5 -193 -67.5c-51.333 0 -96.5 9.5 -135.5 28.5s-58.5 45.167 -58.5 78.5c0 16 5 29 15 39s22.667 15 38 15c16 0 29.167 -5.66699 39.5 -17s15.5 -27 15.5 -47v-59c30.667 -15.333 59.667 -23 87 -23c48.667 0 86.167 21 112.5 63
s39.833 100 40.5 174h-213z" />
    <glyph glyph-name="afii10096" unicode="&#x44e;" horiz-adv-x="802" 
d="M19 10l59.999 19.001v442l-60 19v10h216v-10l-52 -19v-205h98c3.33301 72 27 129.667 71 173s100.667 65 170 65c71.333 0 129.333 -23.333 174 -70s67 -108.334 67 -185.001c0 -77.333 -22.167 -139 -66.5 -185s-102.5 -69 -174.5 -69
c-71.333 0 -129.166 22.667 -173.499 68s-66.833 106.333 -67.5 183h-98v-217l52 -19v-10h-216v10zM386.999 249.001c0 -76.667 12.333 -135.665 37 -176.998s57.334 -62 98.001 -62s73.167 20.667 97.5 62s36.5 100.333 36.5 177c0 77.333 -12 136.666 -36 177.999
s-56.667 62 -98 62c-40.667 0 -73.334 -20.833 -98.001 -62.5s-37 -100.834 -37 -177.501z" />
    <glyph glyph-name="afii10097" unicode="&#x44f;" horiz-adv-x="570" 
d="M16 24l7.00098 7.00098c10 -7.33301 20 -11 30 -11c12.667 0 22.167 5.66699 28.5 17s13.833 32.333 22.5 63l14 47c16.667 54 54.667 86.333 114 97c-48 4.66699 -86.167 18.167 -114.5 40.5s-42.5 51.166 -42.5 86.499c0 39.333 17.667 70.666 53 93.999
s81.666 35 138.999 35h283v-9l-60 -15v-447l60 -19v-10h-224v10l60 19v206h-50c-34.667 0 -61.167 -7 -79.5 -21s-31.833 -36 -40.5 -66l-14 -53c-5.33301 -18 -9.83301 -31.833 -13.5 -41.5s-9.16699 -19.667 -16.5 -30s-16.5 -17.666 -27.5 -21.999
s-24.833 -6.5 -41.5 -6.5c-38.667 0 -67.667 9.66699 -87 29zM303.001 254.001l83 0.000976562v227h-83c-37.333 0 -67 -9.66699 -89 -29s-33 -47.333 -33 -84s11 -64.834 33 -84.501s51.667 -29.5 89 -29.5z" />
    <glyph glyph-name="uni0450" unicode="&#x450;" horiz-adv-x="558" 
d="M495 250l-349 -0.000976562c0 -71.333 16.333 -126.5 49 -165.5s81 -58.5 145 -58.5c58.667 0 107.667 19.667 147 59l11 -12c-52 -52 -119 -78 -201 -78c-84 0 -148 23 -192 69s-66 106 -66 180c0 78.667 23.5 141.667 70.5 189s107.167 71 180.5 71
c65.333 0 119 -18.667 161 -56s63 -85.666 63 -144.999c0 -16 -1.66699 -29.333 -5 -40zM294 488.999c-39.333 0 -73.333 -19.167 -102 -57.5s-44 -93.833 -46 -166.5l266 15c0 68.667 -10.333 120.667 -31 156s-49.667 53 -87 53zM231 703.999l138 -141l-10 -11l-185 94z
" />
    <glyph glyph-name="afii10071" unicode="&#x451;" horiz-adv-x="558" 
d="M495 250l-349 -0.000976562c0 -71.333 16.333 -126.5 49 -165.5s81 -58.5 145 -58.5c58.667 0 107.667 19.667 147 59l11 -12c-52 -52 -119 -78 -201 -78c-84 0 -148 23 -192 69s-66 106 -66 180c0 78.667 23.5 141.667 70.5 189s107.167 71 180.5 71
c65.333 0 119 -18.667 161 -56s63 -85.666 63 -144.999c0 -16 -1.66699 -29.333 -5 -40zM294 488.999c-39.333 0 -73.333 -19.167 -102 -57.5s-44 -93.833 -46 -166.5l266 15c0 68.667 -10.333 120.667 -31 156s-49.667 53 -87 53zM111 609.999c0 18 6 33.167 18 45.5
s27.333 18.5 46 18.5s34 -6.16699 46 -18.5s18 -27.5 18 -45.5c0 -18.667 -6 -34 -18 -46s-27.333 -18 -46 -18s-34 6 -46 18s-18 27.333 -18 46zM335 609.999c0 18 6.16699 33.167 18.5 45.5s27.5 18.5 45.5 18.5c18.667 0 34.167 -6.16699 46.5 -18.5
s18.5 -27.5 18.5 -45.5c0 -18.667 -6.16699 -34 -18.5 -46s-27.833 -18 -46.5 -18c-18 0 -33.167 6 -45.5 18s-18.5 27.333 -18.5 46z" />
    <glyph glyph-name="afii10099" unicode="&#x452;" 
d="M19 10l59.999 19.001v559h-60v8l60 12v79l-60 13v11l151 16l13 -14v-105h182v-20h-182v-88l-3 -68l3 -3c25.333 24 55.833 42.5 91.5 55.5s70.5 19.5 104.5 19.5c51.333 0 89.5 -15.167 114.5 -45.5s37.5 -72.5 37.5 -126.5v-316
c0 -48.667 -12.833 -90.334 -38.5 -125.001s-64.167 -66.667 -115.5 -96l-11 11c40.667 58.667 61 128.667 61 210v299c0 102.667 -33 154 -99 154c-23.333 0 -48.666 -5.66699 -75.999 -17s-50.333 -26.333 -69 -45v-378l60 -19v-10h-224v10z" />
    <glyph glyph-name="afii10100" unicode="&#x453;" horiz-adv-x="460" 
d="M157 563l139 141l57 -58l-185 -94zM379 480h-196v-451l90 -19v-10h-254v10l60 19v447l-60 15v9h408v-109h-16z" />
    <glyph glyph-name="afii10101" unicode="&#x454;" horiz-adv-x="545" 
d="M39 244c0 79.333 23.501 142.499 70.501 189.499s114.5 70.5 202.5 70.5c52 0 97 -10 135 -30l22 18l10 -10v-123h-20c-5.33301 32.667 -16.5 59.334 -33.5 80.001s-34.5 34.167 -52.5 40.5s-37.333 9.5 -58 9.5c-52 0 -92.833 -19.667 -122.5 -59
s-45.167 -93.666 -46.5 -162.999h241v-20h-241c0 -70 15.667 -124.333 47 -163s77.666 -58 138.999 -58c58.667 0 107.667 19.667 147 59l11 -12c-52 -52 -118.667 -78 -200 -78s-143.5 22.667 -186.5 68s-64.5 105.666 -64.5 180.999z" />
    <glyph glyph-name="afii10102" unicode="&#x455;" horiz-adv-x="453" 
d="M46 19v108.999h20c18 -78.667 67.333 -118 148 -118c38.667 0 69.834 9 93.501 27s35.5 42.667 35.5 74c0 28 -9.66699 48 -29 60s-52.333 24 -99 36c-22 6 -38.5 10.667 -49.5 14s-25.333 9.16602 -43 17.499s-30.834 17.166 -39.501 26.499s-16.5 22 -23.5 38
s-10.5 34.333 -10.5 55c0 44.667 14.5 80.167 43.5 106.5s73.5 39.5 133.5 39.5c46.667 0 89 -10 127 -30l22 17l10 -10v-108h-21c-8.66699 43.333 -25.667 73.5 -51 90.5s-53 25.5 -83 25.5c-34 0 -61 -8.66699 -81 -26s-30 -39.666 -30 -66.999
c0 -25.333 8.83301 -44 26.5 -56s46.167 -23.667 85.5 -35l45 -14.5c9.33301 -3 22.833 -8 40.5 -15s30.834 -14.167 39.501 -21.5s18.167 -16.333 28.5 -27s17.666 -23.167 21.999 -37.5s6.5 -30.166 6.5 -47.499c0 -45.333 -16 -81.166 -48 -107.499
s-81.667 -39.5 -149 -39.5c-54 0 -100.333 10.333 -139 31l-21 -17z" />
    <glyph glyph-name="afii10103" unicode="&#x456;" horiz-adv-x="262" 
d="M19 0v10l60 19v438l-60 13v11l151 16l13 -14v-464l60 -19v-10h-224zM53 640c0 20.667 6.66699 37.667 20 51s30.333 20 51 20s37.834 -6.66699 51.501 -20s20.5 -30.333 20.5 -51s-6.83301 -37.667 -20.5 -51s-30.834 -20 -51.501 -20s-37.667 6.66699 -51 20
s-20 30.333 -20 51z" />
    <glyph glyph-name="afii10104" unicode="&#x457;" horiz-adv-x="262" 
d="M19 0v10l60 19v438l-60 13v11l151 16l13 -14v-464l60 -19v-10h-224zM-20 623c0 18.667 6 34 18 46s27.333 18 46 18c18 0 33.167 -6 45.5 -18s18.5 -27.333 18.5 -46s-6.16699 -34 -18.5 -46s-27.5 -18 -45.5 -18c-18.667 0 -34 6 -46 18s-18 27.333 -18 46zM144 623
c0 18.667 6.16699 34 18.5 46s27.5 18 45.5 18c18.667 0 34.167 -6 46.5 -18s18.5 -27.333 18.5 -46s-6.16699 -34 -18.5 -46s-27.833 -18 -46.5 -18c-18 0 -33.167 6 -45.5 18s-18.5 27.333 -18.5 46z" />
    <glyph glyph-name="afii10105" unicode="&#x458;" horiz-adv-x="262" 
d="M79 16v451.001l-60 13v11l151 16l13 -14v-477c0 -48.667 -12.833 -90.334 -38.5 -125.001s-64.167 -66.667 -115.5 -96l-11 11c40.667 58.667 61 128.667 61 210zM53 640.001c0 20.667 6.66699 37.667 20 51s30.333 20 51 20s37.834 -6.66699 51.501 -20
s20.5 -30.333 20.5 -51s-6.83301 -37.667 -20.5 -51s-30.834 -20 -51.501 -20s-37.667 6.66699 -51 20s-20 30.333 -20 51z" />
    <glyph glyph-name="afii10106" unicode="&#x459;" horiz-adv-x="841" 
d="M613 0h-273.999v8l60 16v456h-167l-34 -328c-10.667 -104.667 -44.667 -157 -102 -157c-21.333 0 -40 5.83301 -56 17.5s-24 29.834 -24 54.501c0 18 4.66699 31.833 14 41.5s21.666 14.5 36.999 14.5c16.667 0 30 -4.83301 40 -14.5s15 -22.834 15 -39.501v-34
c4 -1.33301 7 -2 9 -2c10 0 19.167 10.333 27.5 31s14.5 49 18.5 85l35 327l-60 15v9h410v-9l-60 -16v-190h111c58 0 104.833 -13 140.5 -39s53.5 -60.667 53.5 -104s-17.833 -77.833 -53.5 -103.5s-82.5 -38.5 -140.5 -38.5zM582.001 266h-80v-248h80
c36 0 64.667 10.667 86 32s32 52 32 92s-10.667 70.667 -32 92s-50 32 -86 32z" />
    <glyph glyph-name="afii10107" unicode="&#x45a;" horiz-adv-x="862" 
d="M641 0h-267v10l52 17v219h-243v-217l52 -19v-10h-216v10l60 19v442l-60 19v10h216v-10l-52 -19v-204h243v204l-52 19v10h216v-10l-60 -19v-204h111c55.333 0 100.333 -12.167 135 -36.5s52 -56.833 52 -97.5s-17.167 -73 -51.5 -97s-79.5 -36 -135.5 -36zM609 246
l-79 -0.00195312v-228h79c34 0 61.167 9.83301 81.5 29.5s30.5 47.834 30.5 84.501s-10.167 64.834 -30.5 84.501s-47.5 29.5 -81.5 29.5z" />
    <glyph glyph-name="afii10108" unicode="&#x45b;" 
d="M79 608l-0.000976562 79l-60 13v11l151 16l13 -14v-105h182v-20h-182v-88l-3 -68l3 -3c25.333 24 55.833 42.5 91.5 55.5s70.5 19.5 104.5 19.5c51.333 0 89.5 -15.167 114.5 -45.5s37.5 -72.5 37.5 -126.5v-303l60 -19v-10h-217v10l53 19v286c0 102.667 -33 154 -99 154
c-23.333 0 -48.666 -5.66699 -75.999 -17s-50.333 -26.333 -69 -45v-378l53 -19v-10h-217v10l60 19v559h-60v8z" />
    <glyph glyph-name="afii10109" unicode="&#x45c;" horiz-adv-x="567" 
d="M401 429l-0.000976562 43.001c-2.66699 2 -6.33398 3 -11.001 3c-26 0 -44.667 -24.667 -56 -74l-12 -53c-9.33301 -40.667 -31 -68.667 -65 -84h18c54.667 0 95 -8.33301 121 -25s43.667 -44.667 53 -84l12 -52c7.33301 -30 14.333 -51.333 21 -64
s16.334 -19 29.001 -19c10 0 20 3.66699 30 11l8 -7c-19.333 -19.333 -48.666 -29 -87.999 -29c-31.333 0 -53.666 8.16699 -66.999 24.5s-24.666 42.5 -33.999 78.5l-14 61c-8 32 -20 55 -36 69s-41.333 21 -76 21h-51v-220l57 -19v-10h-221v10l60 19v442l-60 19v10h224
v-10l-60 -19v-206c31.333 0 57.166 7.5 77.499 22.5s33.5 35.167 39.5 60.5l11 52c14.667 70 51 105 109 105c25.333 0 46.666 -6 63.999 -18s26 -30.667 26 -56c0 -18.667 -4.83301 -32.834 -14.5 -42.501s-22.5 -14.5 -38.5 -14.5c-16.667 0 -30.167 5 -40.5 15
s-15.5 23.333 -15.5 40zM204.999 563.001l139 141l57 -58l-185 -94z" />
    <glyph glyph-name="uni045D" unicode="&#x45d;" 
d="M244 704l138 -141l-10 -11l-185 94zM19 10l60 19v442l-60 19v10h217v-10l-53 -19v-299l-3 -77l3 -3l244 361v18l-53 19v10h217v-10l-60 -19v-442l60 -19v-10h-217v10l53 19v299l3 77l-3 3l-244 -361v-18l53 -19v-10h-217v10z" />
    <glyph glyph-name="afii10110" unicode="&#x45e;" horiz-adv-x="601" 
d="M377 587l0.000976562 60.001c0 16.667 4.83301 30 14.5 40s22.5 15 38.5 15c15.333 0 27.666 -4.83301 36.999 -14.5s14 -21.834 14 -36.501c0 -29.333 -17.167 -52 -51.5 -68s-71.833 -24 -112.5 -24c-24.667 0 -49 3 -73 9s-45.167 16.5 -63.5 31.5
s-27.5 32.5 -27.5 52.5c0 14.667 4.83301 26.667 14.5 36s22.167 14 37.5 14s27.833 -5 37.5 -15s14.5 -23.333 14.5 -40v-60c18.667 -8 38.667 -12 60 -12s41.333 4 60 12zM288.001 -8.99902l-217.999 480l-59 19v10h228v-10l-61 -19l164 -363l162 363l-83 19v10h169v-10
l-64 -19l-212 -471c-33.333 -73.333 -61.833 -125.333 -85.5 -156s-51.5 -46 -83.5 -46c-22 0 -42.167 5.83301 -60.5 17.5s-27.5 30.167 -27.5 55.5c0 17.333 4.66699 30.833 14 40.5s21.666 14.5 36.999 14.5c16 0 29 -5 39 -15s15 -23.333 15 -40v-40
c4 -2 7.66699 -3 11 -3c18 0 35.833 13.833 53.5 41.5s38.167 68.167 61.5 121.5z" />
    <glyph glyph-name="afii10193" unicode="&#x45f;" horiz-adv-x="609" 
d="M273 0h-254v8l60 16v447l-60 19v10h216v-10l-52 -19v-451h243v451l-52 19v10h216v-10l-60 -19v-447l60 -16v-8h-254l-21 -134h-21z" />
    <glyph glyph-name="afii10050" unicode="&#x490;" horiz-adv-x="533" 
d="M19 700h420l45 102h17v-122h-309v-651l95 -19v-10h-268v10l65 19v647l-65 15v9z" />
    <glyph glyph-name="afii10098" unicode="&#x491;" horiz-adv-x="427" 
d="M394 480h-211v-451l90 -19v-10h-254v10l60 19v447l-60 15v9h324l34 89h17v-109z" />
    <glyph glyph-name="uni04D8" unicode="&#x4d8;" horiz-adv-x="734" 
d="M96 593l-11.001 10.999c66 68 151.333 102 256 102s188.334 -32 251.001 -96s94 -150.333 94 -259c0 -109.333 -31.167 -196.166 -93.5 -260.499s-143.5 -96.5 -243.5 -96.5c-90 0 -162.667 25.833 -218 77.5s-83 118.834 -83 201.501c0 22.667 2.33301 41 7 55l18 19
h500c0 101.333 -22.5 181.166 -67.5 239.499s-111.833 87.5 -200.5 87.5c-86 0 -155.667 -27 -209 -81zM347.999 10.999c66 0 119.668 27.668 161.001 83.001s62.666 134.333 63.999 237l-419 -23c0 -98.667 16.667 -172.834 50 -222.501s81.333 -74.5 144 -74.5z" />
    <glyph glyph-name="afii10846" unicode="&#x4d9;" horiz-adv-x="558" 
d="M63 249l349 0.000976562c0 71.333 -16 126.5 -48 165.5s-79.333 58.5 -142 58.5c-57.333 0 -105.333 -19.667 -144 -59l-11 12c50.667 52 116.667 78 198 78c82.667 0 145.667 -23 189 -69s65 -106 65 -180c0 -78.667 -23.5 -141.667 -70.5 -189s-107.167 -71 -180.5 -71
c-65.333 0 -119 18.667 -161 56s-63 85.666 -63 144.999c0 15.333 1.66699 28.333 5 39zM264 10.001c39.333 0 73.333 19.167 102 57.5s44 93.833 46 166.5l-266 -15c0 -68.667 10.333 -120.667 31 -156s49.667 -53 87 -53z" />
    <glyph glyph-name=".null" horiz-adv-x="0" 
 />
    <glyph glyph-name="nonmarkingreturn" horiz-adv-x="333" 
 />
    </font>
</defs>
</svg>
